<svg width="210" height="121" fill="none" xmlns="http://www.w3.org/2000/svg"><path d="M43.94 77.253l4.828-9.41h20.608l-7.067 23.723c-2.408 8.053-7.104 15.023-14.255 20.335-7.745 5.757-17.39 8.822-28.45 8.822-11.06 0-17.486-3.065-19.168-8.822-1.55-5.324 1.077-12.282 7.164-20.335L33.665 57.05c2.76-3.666 6.269-6.262 10.553-7.98 4.09-1.647 8.857-2.44 14.412-2.44 5.554 0 9.475.793 11.847 2.44 2.468 1.718 3.23 4.326 2.142 7.98l-1.452 4.855h-13.07l2.36-5.324c1.32-2.969-.194-4.375-4.441-4.375-4.26 0-7.236 1.406-9.015 4.375L25.376 92.516c-3.884 6.466-2.541 9.963 4.38 9.963 6.91 0 11.92-3.497 14.788-9.963l6.753-15.251h-7.358v-.012zm48.561-24.567l-.944 13.881h19.931l1.307 9.147H90.94l-1.742 25.635h34.282l3.485 17.727H65.419l15.95-72.062h31.438l1.113 5.648H92.501v.024zm93.541 66.414L133.39 58.768l24.541 60.332h-20.305l-19.374-72.062h14.461l31.112 31.152-19.265-31.152h10.274l54.394 72.062h-23.186zM82.372 8.736c0 1.49-.387 2.644-1.15 3.474-.762.829-1.839 1.25-3.206 1.25-.86 0-1.61-.193-2.263-.577a3.813 3.813 0 01-1.513-1.659c-.35-.721-.532-1.55-.532-2.5 0-1.478.375-2.62 1.138-3.449.762-.83 1.839-1.238 3.218-1.238 1.32 0 2.372.42 3.147 1.274.774.841 1.161 1.983 1.161 3.425zm-6.667 0c0 2.103.786 3.15 2.347 3.15 1.55 0 2.324-1.046 2.324-3.15 0-2.079-.775-3.112-2.336-3.112-.81 0-1.404.264-1.779.805-.375.529-.556 1.298-.556 2.307zm16.954 4.554H90.71V7.703c0-.697-.145-1.225-.423-1.574-.29-.349-.738-.517-1.356-.517-.822 0-1.427.24-1.803.721-.375.481-.568 1.286-.568 2.428v4.53h-1.95V4.206h1.525l.278 1.19h.097c.279-.433.666-.77 1.174-.998.508-.24 1.065-.348 1.694-.348 2.19 0 3.292 1.106 3.292 3.329v5.913h-.012zm4.647.001h-1.949V.504h1.949V13.29zM99.98 1.79c0-.35.096-.614.29-.794.194-.192.46-.276.811-.276.339 0 .605.096.798.276.194.192.291.457.291.793 0 .325-.097.59-.291.782-.193.192-.459.288-.798.288-.351 0-.63-.096-.811-.288-.194-.193-.29-.445-.29-.782zm2.057 11.5h-1.949V4.206h1.949v9.086zm10.831 0h-1.949V7.703c0-.697-.145-1.225-.423-1.574-.291-.349-.738-.517-1.356-.517-.822 0-1.428.24-1.803.721s-.568 1.286-.568 2.428v4.53h-1.949V4.206h1.525l.278 1.19h.097c.279-.433.666-.77 1.174-.998.508-.24 1.065-.348 1.694-.348 2.19 0 3.292 1.106 3.292 3.329v5.913h-.012zm6.716.17c-1.428 0-2.541-.41-3.34-1.238-.798-.83-1.21-1.96-1.21-3.414 0-1.49.375-2.656 1.113-3.497.739-.841 1.767-1.274 3.074-1.274 1.21 0 2.166.36 2.868 1.094.702.733 1.053 1.73 1.053 3.004v1.046h-6.099c.024.877.266 1.562.714 2.031.448.469 1.089.71 1.912.71a6.72 6.72 0 001.513-.157 7.122 7.122 0 001.5-.505v1.575a5.97 5.97 0 01-1.44.48 8.6 8.6 0 01-1.658.145zm-.363-7.957c-.617 0-1.113.193-1.488.59-.375.384-.593.96-.666 1.706h4.151c-.012-.745-.194-1.322-.545-1.707-.351-.396-.835-.589-1.452-.589zM84.792 30.598c0 .89-.327 1.575-.98 2.043-.654.469-1.585.71-2.796.71-1.222 0-2.202-.18-2.94-.553v-1.671c1.077.493 2.081.745 3.001.745 1.198 0 1.791-.36 1.791-1.081a.85.85 0 00-.194-.577c-.133-.157-.35-.313-.653-.481-.303-.168-.726-.349-1.27-.565-1.053-.409-1.767-.805-2.143-1.214-.375-.408-.556-.925-.556-1.574 0-.781.314-1.382.944-1.815.629-.433 1.488-.649 2.577-.649a7.31 7.31 0 013.05.649l-.63 1.454c-.992-.408-1.815-.613-2.492-.613-1.029 0-1.537.289-1.537.878 0 .288.133.528.4.72.265.193.846.47 1.754.818.75.288 1.307.553 1.645.793.34.24.593.517.763.83.181.348.266.72.266 1.153zm5.506 1.202a4.96 4.96 0 001.428-.216v1.454a3.728 3.728 0 01-.835.228c-.339.06-.69.096-1.053.096-1.839 0-2.759-.961-2.759-2.896v-4.904h-1.246v-.853L87.176 24l.666-1.923h1.198v2.02h2.601v1.465H89.04v4.868c0 .469.12.805.35 1.034.23.216.533.336.908.336zm11.375-3.173c0 1.49-.387 2.644-1.149 3.473-.763.83-1.84 1.25-3.207 1.25-.86 0-1.61-.192-2.263-.577a3.814 3.814 0 01-1.513-1.658c-.35-.721-.532-1.55-.532-2.5 0-1.478.375-2.62 1.137-3.45.763-.829 1.84-1.237 3.22-1.237 1.318 0 2.371.42 3.145 1.274.775.853 1.162 1.995 1.162 3.425zm-6.655 0c0 2.103.786 3.149 2.347 3.149 1.55 0 2.324-1.046 2.324-3.15 0-2.078-.775-3.112-2.336-3.112-.81 0-1.404.265-1.779.805-.375.541-.556 1.31-.556 2.308zm13.54-4.687c.387 0 .714.024.968.085l-.194 1.802a4.082 4.082 0 00-.859-.096c-.774 0-1.403.252-1.888.757-.484.505-.726 1.154-.726 1.96v4.746h-1.948v-9.097h1.525l.254 1.598h.097c.302-.54.702-.973 1.186-1.286a2.903 2.903 0 011.585-.469zm6.656 9.423c-1.428 0-2.541-.409-3.34-1.238-.799-.83-1.21-1.96-1.21-3.413 0-1.49.375-2.656 1.113-3.498.751-.853 1.767-1.274 3.074-1.274 1.21 0 2.166.361 2.868 1.094.702.733 1.053 1.73 1.053 3.005v1.045h-6.099c.024.878.266 1.563.714 2.031.448.47 1.089.71 1.912.71.544 0 1.04-.049 1.512-.157a7.11 7.11 0 001.501-.505v1.575a5.97 5.97 0 01-1.44.48 8.427 8.427 0 01-1.658.145zm-.351-7.956c-.617 0-1.113.192-1.488.589-.375.384-.593.961-.666 1.706h4.151c-.012-.745-.194-1.322-.545-1.706-.351-.397-.835-.59-1.452-.59z" fill="#42F081"/></svg>