<svg width="107" height="62" viewBox="0 0 107 62" fill="none" xmlns="http://www.w3.org/2000/svg">
<path d="M22.9423 39.372L25.3749 34.6275H35.7578L32.1973 46.5888C30.984 50.6486 28.6184 54.163 25.0152 56.8413C21.1132 59.7437 16.2541 61.2889 10.6816 61.2889C5.10907 61.2889 1.87165 59.7437 1.02419 56.8413C0.2438 54.157 1.56681 50.6486 4.63352 46.5888L17.7661 29.1861C19.1562 27.338 20.9242 26.0292 23.0825 25.1627C25.1432 24.3325 27.5454 23.9326 30.3438 23.9326C33.1423 23.9326 35.1177 24.3325 36.3126 25.1627C37.5564 26.0292 37.9405 27.3441 37.3918 29.1861L36.6601 31.6341H30.0756L31.2645 28.9498C31.929 27.4531 31.1669 26.7442 29.0269 26.7442C26.8808 26.7442 25.381 27.4531 24.4848 28.9498L13.5898 47.0675C11.6327 50.3274 12.3094 52.0907 15.7968 52.0907C19.2781 52.0907 21.8022 50.3274 23.2471 47.0675L26.6492 39.3781H22.9423V39.372Z" fill="white"/>
<path d="M47.4094 26.9865L46.9338 33.9851H56.9753L57.6338 38.5963H46.6229L45.7449 51.5211H63.0173L64.7732 60.4587H33.7646L41.8003 24.1265H57.6399L58.2008 26.9744H47.4094V26.9865Z" fill="white"/>
<path d="M94.5372 60.4709L68.0099 30.0527L80.3743 60.4709H70.1438L60.3828 24.1387H67.6685L83.3434 39.8447L73.6373 24.1387H78.8135L106.219 60.4709H94.5372Z" fill="white"/>
<path d="M42.3058 4.82675C42.3058 5.57812 42.1107 6.15982 41.7266 6.57792C41.3425 6.99602 40.7999 7.2081 40.1109 7.2081C39.678 7.2081 39.3 7.11115 38.9708 6.91725C38.6416 6.72335 38.3855 6.44461 38.2087 6.08105C38.0319 5.71748 37.9404 5.29938 37.9404 4.82069C37.9404 4.07538 38.1294 3.49974 38.5135 3.08164C38.8976 2.66354 39.4403 2.45752 40.1353 2.45752C40.7999 2.45752 41.3303 2.6696 41.7205 3.09982C42.1107 3.52398 42.3058 4.09962 42.3058 4.82675ZM38.9464 4.82675C38.9464 5.88715 39.3427 6.41432 40.1292 6.41432C40.9096 6.41432 41.2998 5.88715 41.2998 4.82675C41.2998 3.77847 40.9096 3.25736 40.1231 3.25736C39.7146 3.25736 39.4159 3.39067 39.2269 3.66334C39.0379 3.92996 38.9464 4.31776 38.9464 4.82675Z" fill="white"/>
<path d="M47.488 7.12355H46.5064V4.30593C46.5064 3.95448 46.4332 3.68787 46.293 3.51214C46.1467 3.33642 45.9211 3.25159 45.6102 3.25159C45.1956 3.25159 44.8907 3.37278 44.7017 3.61515C44.5127 3.85753 44.4152 4.26351 44.4152 4.83916V7.12355H43.4336V2.54264H44.2018L44.342 3.14252H44.3908C44.531 2.92438 44.7261 2.75472 44.9822 2.63959C45.2383 2.5184 45.5187 2.46387 45.8357 2.46387C46.9393 2.46387 47.4941 3.02133 47.4941 4.14232V7.12355H47.488Z" fill="white"/>
<path d="M49.8292 7.12348H48.8477V0.67627H49.8292V7.12348Z" fill="white"/>
<path d="M51.1768 1.32444C51.1768 1.14872 51.2255 1.01541 51.3231 0.924523C51.4206 0.827572 51.5548 0.785156 51.7316 0.785156C51.9023 0.785156 52.0364 0.833632 52.1339 0.924523C52.2315 1.02147 52.2803 1.15478 52.2803 1.32444C52.2803 1.48805 52.2315 1.62136 52.1339 1.71831C52.0364 1.81526 51.9023 1.86373 51.7316 1.86373C51.5548 1.86373 51.4145 1.81526 51.3231 1.71831C51.2255 1.62136 51.1768 1.49411 51.1768 1.32444ZM52.2132 7.1233H51.2316V2.54239H52.2132V7.1233Z" fill="white"/>
<path d="M57.6697 7.12355H56.6881V4.30593C56.6881 3.95448 56.6149 3.68787 56.4747 3.51214C56.3284 3.33642 56.1028 3.25159 55.7918 3.25159C55.3772 3.25159 55.0724 3.37278 54.8834 3.61515C54.6944 3.85753 54.5968 4.26351 54.5968 4.83916V7.12355H53.6152V2.54264H54.3834L54.5237 3.14252H54.5724C54.7127 2.92438 54.9078 2.75472 55.1639 2.63959C55.4199 2.5184 55.7004 2.46387 56.0174 2.46387C57.121 2.46387 57.6758 3.02133 57.6758 4.14232V7.12355H57.6697Z" fill="white"/>
<path d="M61.0541 7.2081C60.3347 7.2081 59.7738 7.00208 59.3714 6.58398C58.969 6.16588 58.7617 5.5963 58.7617 4.86311C58.7617 4.11174 58.9507 3.52398 59.3226 3.09982C59.6945 2.67566 60.2128 2.45752 60.8712 2.45752C61.4809 2.45752 61.9626 2.6393 62.3162 3.00893C62.6698 3.37855 62.8466 3.88148 62.8466 4.52378V5.05095H59.7738C59.786 5.49329 59.9079 5.83867 60.1335 6.07499C60.3591 6.31131 60.6822 6.43249 61.0968 6.43249C61.3712 6.43249 61.6212 6.40826 61.8589 6.35372C62.0967 6.30525 62.3467 6.22042 62.6149 6.09923V6.89301C62.3772 7.00814 62.1333 7.08691 61.8894 7.13539C61.6455 7.18386 61.3651 7.2081 61.0541 7.2081ZM60.8712 3.19677C60.5603 3.19677 60.3103 3.29372 60.1213 3.49368C59.9323 3.68758 59.8226 3.97843 59.786 4.35412H61.8772C61.8711 3.97843 61.7797 3.68758 61.6029 3.49368C61.4261 3.29372 61.1822 3.19677 60.8712 3.19677Z" fill="white"/>
<path d="M43.5248 15.8495C43.5248 16.2979 43.3602 16.6433 43.031 16.8796C42.7018 17.1159 42.2323 17.2371 41.6226 17.2371C41.0068 17.2371 40.513 17.1462 40.1411 16.9584V16.1161C40.6837 16.3645 41.1898 16.4918 41.6531 16.4918C42.2567 16.4918 42.5554 16.31 42.5554 15.9464C42.5554 15.8313 42.525 15.7344 42.4579 15.6556C42.3908 15.5768 42.2811 15.4981 42.1287 15.4132C41.9762 15.3284 41.7629 15.2375 41.4885 15.1284C40.9581 14.9224 40.5984 14.7224 40.4094 14.5164C40.2204 14.3104 40.1289 14.0499 40.1289 13.7226C40.1289 13.3288 40.2874 13.0258 40.6045 12.8077C40.9215 12.5895 41.3544 12.4805 41.9031 12.4805C42.4457 12.4805 42.9578 12.5895 43.4395 12.8077L43.1224 13.5409C42.6225 13.3348 42.2079 13.2318 41.8665 13.2318C41.3483 13.2318 41.0922 13.3773 41.0922 13.6742C41.0922 13.8196 41.1593 13.9408 41.2934 14.0377C41.4275 14.1347 41.7202 14.2741 42.1774 14.4498C42.5554 14.5952 42.8359 14.7285 43.0066 14.8497C43.1773 14.9709 43.3054 15.1103 43.3907 15.2678C43.4822 15.4435 43.5248 15.6314 43.5248 15.8495Z" fill="white"/>
<path d="M46.2985 16.4553C46.5363 16.4553 46.7741 16.4189 47.0179 16.3462V17.0794C46.9082 17.1279 46.768 17.1642 46.5973 17.1945C46.4266 17.2248 46.2498 17.243 46.0669 17.243C45.1401 17.243 44.6768 16.7583 44.6768 15.7827V13.3105H44.0488V12.8802L44.7256 12.5227L45.0609 11.5532H45.6645V12.5712H46.9753V13.3105H45.6645V15.7645C45.6645 16.0008 45.7254 16.1705 45.8413 16.2856C45.9571 16.3947 46.1095 16.4553 46.2985 16.4553Z" fill="white"/>
<path d="M52.0303 14.8556C52.0303 15.6069 51.8352 16.1886 51.4511 16.6067C51.067 17.0248 50.5244 17.2369 49.8355 17.2369C49.4026 17.2369 49.0246 17.14 48.6954 16.9461C48.3662 16.7522 48.1101 16.4734 47.9333 16.1099C47.7565 15.7463 47.665 15.3282 47.665 14.8495C47.665 14.1042 47.854 13.5285 48.2381 13.1104C48.6222 12.6923 49.1648 12.4863 49.8599 12.4863C50.5244 12.4863 51.0548 12.6984 51.445 13.1286C51.8352 13.5588 52.0303 14.1345 52.0303 14.8556ZM48.6771 14.8556C48.6771 15.916 49.0734 16.4431 49.8599 16.4431C50.6403 16.4431 51.0305 15.916 51.0305 14.8556C51.0305 13.8073 50.6403 13.2862 49.8538 13.2862C49.4453 13.2862 49.1466 13.4195 48.9576 13.6922C48.7686 13.9648 48.6771 14.3526 48.6771 14.8556Z" fill="white"/>
<path d="M55.4994 12.4922C55.6945 12.4922 55.8591 12.5043 55.9872 12.5346L55.8896 13.4435C55.7494 13.4132 55.6031 13.395 55.4568 13.395C55.0665 13.395 54.7495 13.5223 54.5056 13.7768C54.2617 14.0313 54.1398 14.3585 54.1398 14.7645V17.1579H53.1582V12.571H53.9264L54.0545 13.3769H54.1032C54.2557 13.1042 54.4569 12.886 54.7007 12.7285C54.9507 12.571 55.2129 12.4922 55.4994 12.4922Z" fill="white"/>
<path d="M58.852 17.2428C58.1325 17.2428 57.5716 17.0367 57.1692 16.6186C56.7669 16.2005 56.5596 15.631 56.5596 14.8978C56.5596 14.1464 56.7486 13.5586 57.1205 13.1345C57.4985 12.7043 58.0106 12.4922 58.6691 12.4922C59.2787 12.4922 59.7604 12.674 60.114 13.0436C60.4676 13.4132 60.6444 13.9161 60.6444 14.5584V15.0856H57.5716C57.5838 15.528 57.7058 15.8733 57.9313 16.1097C58.1569 16.346 58.4801 16.4672 58.8946 16.4672C59.169 16.4672 59.419 16.4429 59.6567 16.3884C59.8945 16.3399 60.1445 16.2551 60.4127 16.1339V16.9277C60.175 17.0428 59.9311 17.1216 59.6872 17.1701C59.4494 17.2185 59.169 17.2428 58.852 17.2428ZM58.6752 13.2314C58.3642 13.2314 58.1142 13.3284 57.9252 13.5283C57.7362 13.7222 57.6265 14.0131 57.5899 14.3888H59.6811C59.675 14.0131 59.5836 13.7222 59.4068 13.5283C59.23 13.3284 58.9861 13.2314 58.6752 13.2314Z" fill="white"/>
</svg>
