<svg width="75" height="30" fill="none" xmlns="http://www.w3.org/2000/svg"><path d="M8.736 17.455v-4.088l6.233.148v8.246c0 2.104-.52 3.808-1.584 5.142-1.102 1.381-2.772 2.324-5.096 2.822-2.493.532-4.52.3-5.982-.756C.783 27.872 0 26 0 23.39V6.617c0-2.61.783-4.483 2.307-5.583C3.769-.022 5.794-.254 8.289.279c2.324.497 3.994 1.44 5.096 2.822 1.065 1.335 1.584 3.038 1.584 5.142v2.525l-4.077-.277V7.522c0-1.82-.803-2.854-2.468-3.112-1.752-.27-2.66.572-2.66 2.534v16.117c0 1.934.91 2.761 2.66 2.493 1.665-.255 2.468-1.275 2.468-3.07v-5.108l-2.156.079zm11.77-10.914v6.598l4.264.14v3.13l-4.264.113v6.936l5.261-.786v3.07l-8.832 1.845V2.412l8.832 1.844v3.071l-5.261-.786zM32.112 24.42L29.3 10.513v14.494l-2.26.471V4.522l3.096.646L32.4 16.845V5.642l1.794.375v17.969l-2.082.434zm15.156-3.975c0 .703-.261 1.244-.785 1.626-.524.382-1.257.572-2.204.572-1.002 0-1.781-.16-2.342-.476v-1.06c.362.183.75.327 1.167.434.415.104.817.159 1.203.159.596 0 1.056-.096 1.377-.286.32-.19.482-.48.482-.87 0-.295-.126-.546-.382-.754-.255-.21-.75-.456-1.49-.74-.703-.262-1.203-.488-1.497-.685a2.035 2.035 0 01-.662-.663 1.739 1.739 0 01-.216-.889c0-.615.251-1.1.751-1.455.5-.356 1.187-.533 2.058-.533.812 0 1.606.166 2.383.496l-.408.925c-.757-.312-1.443-.47-2.058-.47-.541 0-.95.086-1.226.256-.275.17-.413.404-.413.703 0 .203.053.373.155.517.103.142.27.277.5.406.229.129.67.314 1.322.559.895.325 1.5.655 1.814.984.314.33.471.744.471 1.244z" fill="#000"/><path d="M44.279 22.737c-1.013 0-1.816-.164-2.388-.487l-.048-.026v-1.27l.137.07c.354.178.74.322 1.148.425a4.82 4.82 0 001.179.155c.576 0 1.023-.092 1.329-.273.292-.174.436-.432.436-.79 0-.266-.113-.489-.347-.68-.246-.202-.737-.446-1.464-.725-.716-.267-1.211-.494-1.515-.694a2.114 2.114 0 01-.69-.697 1.832 1.832 0 01-.228-.936c0-.644.266-1.161.79-1.534.515-.367 1.226-.552 2.112-.552.82 0 1.635.17 2.42.504l.088.037-.485 1.104-.085-.035c-.742-.305-1.423-.46-2.023-.46-.522 0-.917.08-1.176.24-.249.153-.369.356-.369.622a.76.76 0 00.137.46c.096.131.254.258.47.38.224.125.663.312 1.31.552.916.334 1.52.664 1.85 1.009.33.347.497.787.497 1.311 0 .731-.277 1.303-.822 1.703-.542.388-1.301.587-2.264.587zm-2.246-.625c.539.29 1.296.437 2.245.437.921 0 1.644-.186 2.148-.554.502-.365.746-.873.746-1.55 0-.474-.15-.87-.445-1.18-.303-.32-.901-.642-1.778-.96-.664-.25-1.1-.433-1.336-.564-.24-.135-.42-.28-.53-.432a.945.945 0 01-.173-.572c0-.332.155-.596.458-.783.29-.18.718-.269 1.275-.269.6 0 1.277.149 2.008.441l.331-.757a5.956 5.956 0 00-2.256-.452c-.85 0-1.523.175-2.004.515-.477.34-.711.792-.711 1.38 0 .324.068.608.203.84.137.233.35.447.63.632.289.19.786.417 1.48.677.758.292 1.253.539 1.517.755.277.227.417.504.417.827 0 .424-.177.745-.528.952-.334.198-.814.299-1.425.299-.393 0-.806-.055-1.225-.162a5.854 5.854 0 01-1.05-.373v.853h.003zm9.672-.412a3.91 3.91 0 001.032-.138v.875c-.124.06-.305.11-.547.149-.24.04-.459.059-.65.059-1.46 0-2.19-.768-2.19-2.307v-4.492h-1.08v-.55l1.08-.475.483-1.611h.66v1.748h2.19v.888h-2.19v4.442c0 .454.108.803.324 1.047.216.242.51.365.888.365z" fill="#000"/><path d="M51.54 22.737c-1.515 0-2.286-.808-2.286-2.401v-4.395h-1.08v-.708l1.098-.482.489-1.637h.825v1.748h2.188v1.079h-2.186v4.347c0 .428.1.76.299.984.198.225.467.334.818.334.197 0 .389-.015.57-.044.183-.028.331-.058.436-.089l.12-.035v1.06l-.052.027a2.2 2.2 0 01-.574.157c-.245.035-.47.055-.666.055zm-3.176-6.984h1.08v4.583c0 1.488.685 2.213 2.095 2.213.186 0 .4-.02.635-.057.199-.033.356-.072.467-.115v-.69a4.126 4.126 0 01-.338.063 3.91 3.91 0 01-.6.046c-.404 0-.727-.133-.958-.397-.231-.26-.347-.633-.347-1.109v-4.537h2.189v-.698h-2.19v-1.749h-.495l-.473 1.587-1.065.467v.393zM60.9 18.725c0 1.23-.31 2.191-.93 2.88-.62.693-1.475 1.037-2.569 1.037-.674 0-1.274-.159-1.796-.475a3.119 3.119 0 01-1.211-1.364c-.284-.592-.428-1.286-.428-2.08 0-1.231.308-2.19.923-2.874.616-.686 1.469-1.03 2.562-1.03 1.057 0 1.895.35 2.517 1.053.622.703.931 1.655.931 2.853zm-5.749 0c0 .965.192 1.698.578 2.204.387.504.952.758 1.7.758.75 0 1.316-.251 1.705-.753.388-.502.583-1.238.583-2.207 0-.96-.195-1.687-.583-2.187-.389-.497-.96-.746-1.718-.746-.748 0-1.313.247-1.693.738-.382.488-.572 1.22-.572 2.193z" fill="#000"/><path d="M57.403 22.736c-.69 0-1.309-.163-1.846-.489a3.249 3.249 0 01-1.248-1.403c-.29-.602-.437-1.316-.437-2.121 0-1.248.319-2.237.947-2.938.631-.703 1.517-1.06 2.632-1.06 1.078 0 1.95.364 2.589 1.084.635.718.956 1.698.956 2.914 0 1.248-.321 2.24-.954 2.944-.637.711-1.523 1.07-2.639 1.07zm.048-7.822c-1.058 0-1.896.337-2.49.998-.596.665-.899 1.61-.899 2.81 0 .778.14 1.463.417 2.04a3.05 3.05 0 001.176 1.322c.507.305 1.094.46 1.748.46 1.059 0 1.9-.338 2.497-1.004.6-.67.906-1.617.906-2.817 0-1.168-.306-2.106-.91-2.787-.6-.677-1.423-1.021-2.445-1.021zm-.021 6.867c-.775 0-1.373-.269-1.777-.795-.397-.52-.598-1.281-.598-2.261 0-.99.199-1.748.592-2.254.397-.513.993-.773 1.767-.773.784 0 1.388.264 1.792.784.4.512.602 1.268.602 2.243 0 .984-.203 1.748-.602 2.265-.402.524-1.002.79-1.776.79zm-.014-5.895c-.713 0-1.259.235-1.619.7-.366.472-.552 1.192-.552 2.139 0 .938.188 1.66.559 2.145.364.478.912.72 1.626.72.713 0 1.261-.242 1.63-.717.373-.485.563-1.207.563-2.15 0-.934-.19-1.65-.561-2.128-.371-.47-.923-.71-1.645-.71zm9.07-1.065c.334 0 .635.029.902.083l-.16 1.06a3.825 3.825 0 00-.827-.102c-.61 0-1.132.25-1.567.745-.434.495-.65 1.113-.65 1.852v4.049H63.04v-7.55h.943l.131 1.398h.055c.279-.492.617-.871 1.012-1.138.4-.264.834-.397 1.305-.397z" fill="#000"/><path d="M64.282 22.6h-1.331v-7.735h1.124l.12 1.277c.266-.422.58-.758.94-.998a2.383 2.383 0 011.354-.415c.34 0 .65.029.92.086l.088.017-.188 1.248-.098-.021a3.765 3.765 0 00-.805-.1c-.579 0-1.083.24-1.495.71-.417.476-.627 1.079-.627 1.79v4.14h-.002zm-1.143-.19h.953v-3.953c0-.76.227-1.403.675-1.914.45-.515 1.002-.777 1.637-.777.218 0 .469.028.748.085l.131-.87a4.649 4.649 0 00-.794-.064c-.452 0-.871.129-1.249.384-.38.258-.711.629-.982 1.105l-.026.048h-.196l-.131-1.397h-.762v7.353h-.004zm8.991.232c-1.115 0-1.995-.34-2.64-1.019-.647-.679-.968-1.622-.968-2.83 0-1.216.3-2.183.9-2.899.598-.716 1.403-1.074 2.413-1.074.945 0 1.694.31 2.246.932.55.622.827 1.443.827 2.462v.722h-5.203c.022.887.247 1.559.672 2.017.426.458 1.022.69 1.794.69.812 0 1.615-.17 2.41-.509v1.02a6.082 6.082 0 01-1.146.375 6.42 6.42 0 01-1.305.113zm-.31-6.864c-.607 0-1.089.197-1.45.592-.36.395-.57.94-.636 1.639h3.945c0-.72-.161-1.273-.482-1.657-.323-.384-.781-.574-1.377-.574z" fill="#000"/><path d="M72.13 22.736c-1.137 0-2.05-.353-2.708-1.047-.66-.694-.993-1.668-.993-2.896 0-1.233.31-2.229.92-2.96.616-.735 1.452-1.108 2.486-1.108.97 0 1.749.325 2.316.964.563.637.851 1.486.851 2.525v.819h-5.196c.035.81.25 1.436.644 1.86.403.436.984.658 1.724.658.796 0 1.593-.168 2.372-.502l.13-.056v1.224l-.056.024a6.084 6.084 0 01-1.165.382 6.794 6.794 0 01-1.325.113zm-.297-7.822c-.975 0-1.763.35-2.341 1.042-.583.696-.878 1.65-.878 2.837 0 1.176.317 2.106.94 2.765.625.657 1.49.989 2.572.989.5 0 .934-.038 1.285-.112a5.76 5.76 0 001.072-.345v-.814a6.145 6.145 0 01-2.316.463c-.794 0-1.423-.242-1.864-.718-.438-.474-.672-1.174-.696-2.08l-.002-.096h5.2v-.628c0-.991-.27-1.799-.803-2.399-.525-.6-1.256-.903-2.169-.903zm1.94 3.189H69.63l.009-.103c.065-.715.288-1.285.661-1.693.378-.413.888-.622 1.519-.622.624 0 1.11.205 1.45.609.333.4.503.977.503 1.717v.092h.002zm-3.934-.19h3.745c-.014-.648-.169-1.152-.459-1.501-.305-.365-.73-.542-1.305-.542-.576 0-1.039.19-1.38.561-.326.36-.53.858-.602 1.482z" fill="#000"/></svg>