<svg width="103" height="41" viewBox="0 0 103 41" fill="none" xmlns="http://www.w3.org/2000/svg">
<path d="M11.908 23.9567V18.4068L20.4048 18.6087V29.8085C20.4048 32.6674 19.6965 34.9798 18.2448 36.7928C16.7424 38.6684 14.4656 39.9513 11.2978 40.6252C7.89866 41.3484 5.13837 41.0345 3.1447 39.599C1.06953 38.1054 0 35.5625 0 32.0166V9.23628C0 5.69144 1.06953 3.14749 3.1447 1.65383C5.13837 0.218327 7.89866 -0.0955507 11.2978 0.627686C14.4667 1.30263 16.7424 2.58449 18.2448 4.46007C19.6965 6.2731 20.4048 8.58658 20.4048 11.4444V14.8751L14.8467 14.4987V10.4677C14.8467 7.99504 13.7519 6.59027 11.4818 6.24127C9.09376 5.87472 7.8546 7.01719 7.8546 9.68186V31.571C7.8546 34.1973 9.09376 35.32 11.4818 34.9545C13.753 34.6077 14.8467 33.2216 14.8467 30.7852V23.8525L11.908 23.9567Z" fill="white"/>
<path d="M27.9521 9.13849V18.0994L33.7646 18.2892V22.5398L27.9521 22.6956V32.1163L35.1249 31.0496V35.2189L23.0847 37.7255V3.5293L35.1249 6.03593V10.2052L27.9521 9.13849Z" fill="white"/>
<path d="M43.7736 33.4185L39.9426 14.531V34.2164L36.8629 34.8573V6.39648L41.0805 7.27447L44.1646 23.133V7.91649L46.6098 8.42572V32.8281L43.7736 33.4185Z" fill="white"/>
<path d="M64.433 28.58C64.433 29.5337 64.0761 30.2701 63.3635 30.787C62.6497 31.305 61.6485 31.5629 60.3597 31.5629C58.995 31.5629 57.9321 31.3478 57.1688 30.9176V29.4777C57.6633 29.7268 58.1931 29.9233 58.7593 30.067C59.3255 30.2108 59.8718 30.2821 60.3972 30.2821C61.2101 30.2821 61.8368 30.1526 62.2741 29.8936C62.7125 29.6346 62.9317 29.2406 62.9317 28.7106C62.9317 28.3111 62.7576 27.9698 62.4107 27.6866C62.0637 27.4035 61.3863 27.0676 60.3785 26.6813C59.4213 26.3257 58.7406 26.0163 58.3374 25.7507C57.9332 25.4862 57.6336 25.1855 57.4364 24.8485C57.2393 24.5116 57.1412 24.1099 57.1412 23.6424C57.1412 22.8072 57.4827 22.1477 58.1645 21.6648C58.8463 21.1819 59.7815 20.9404 60.971 20.9404C62.078 20.9404 63.1608 21.1643 64.2182 21.6132L63.6641 22.8753C62.6321 22.4517 61.6969 22.2398 60.8576 22.2398C60.1196 22.2398 59.5623 22.3551 59.1867 22.5855C58.8111 22.816 58.6238 23.1343 58.6238 23.5393C58.6238 23.8136 58.6943 24.0474 58.8353 24.2405C58.9763 24.4337 59.2032 24.6181 59.516 24.7926C59.8288 24.9671 60.4291 25.2195 61.318 25.5498C62.5384 25.9921 63.3623 26.4377 63.7908 26.8866C64.2193 27.3354 64.433 27.9006 64.433 28.58Z" fill="white"/>
<path d="M60.3597 31.6911C58.9796 31.6911 57.8847 31.4683 57.1049 31.0293L57.0399 30.992V29.2678L57.2271 29.3622C57.7096 29.6058 58.2361 29.8012 58.7912 29.9417C59.3442 30.0822 59.8839 30.1524 60.3972 30.1524C61.1836 30.1524 61.7927 30.0284 62.208 29.7825C62.6078 29.5466 62.8017 29.1954 62.8017 28.7103C62.8017 28.3492 62.6464 28.0463 62.328 27.7851C61.9932 27.5119 61.3213 27.1804 60.3311 26.8007C59.3563 26.4385 58.68 26.1301 58.2647 25.8569C57.8461 25.5825 57.53 25.2653 57.3229 24.9119C57.1148 24.5564 57.0101 24.1294 57.0101 23.6411C57.0101 22.7653 57.3725 22.0651 58.0874 21.558C58.789 21.0609 59.7583 20.8096 60.9688 20.8096C62.089 20.8096 63.1982 21.0389 64.2666 21.4933L64.3867 21.5438L63.7302 23.0396L63.6135 22.9914C62.6012 22.5765 61.6738 22.3658 60.8565 22.3658C60.146 22.3658 59.6063 22.4755 59.2538 22.6928C58.9157 22.9003 58.7516 23.1768 58.7516 23.5368C58.7516 23.7815 58.8143 23.9923 58.9377 24.1624C59.0677 24.3402 59.2825 24.5136 59.5766 24.6771C59.8817 24.8472 60.482 25.0996 61.361 25.4267C62.6111 25.8799 63.4361 26.3277 63.8822 26.7963C64.3327 27.2682 64.5607 27.8674 64.5607 28.5775C64.5607 29.5707 64.1829 30.3477 63.4372 30.8888C62.7069 31.4222 61.6716 31.6911 60.3597 31.6911ZM57.2976 30.8416C58.0334 31.2356 59.0633 31.4342 60.3597 31.4342C61.6154 31.4342 62.6001 31.1818 63.2874 30.6825C63.9714 30.1864 64.3041 29.4983 64.3041 28.5797C64.3041 27.9377 64.1003 27.3977 63.6961 26.9752C63.283 26.5428 62.4679 26.1038 61.2728 25.6703C60.3685 25.3334 59.7726 25.0831 59.4521 24.9043C59.125 24.7221 58.8815 24.5234 58.7306 24.316C58.5742 24.1009 58.4949 23.8397 58.4949 23.539C58.4949 23.0879 58.7053 22.7302 59.1194 22.4755C59.5138 22.233 60.0987 22.1101 60.8576 22.1101C61.6771 22.1101 62.5979 22.3109 63.5958 22.7082L64.0474 21.6799C63.0484 21.2727 62.0141 21.0664 60.971 21.0664C59.8145 21.0664 58.8959 21.3023 58.2394 21.7677C57.5873 22.2297 57.2701 22.8421 57.2701 23.6411C57.2701 24.0833 57.3637 24.4675 57.5477 24.7824C57.7338 25.1007 58.0235 25.3904 58.4079 25.6418C58.8 25.8997 59.4785 26.2092 60.4236 26.5593C61.4546 26.9554 62.1309 27.2913 62.4922 27.5854C62.8689 27.8938 63.0605 28.2713 63.0605 28.7092C63.0605 29.2854 62.8182 29.72 62.3402 30.0031C61.8841 30.272 61.231 30.4092 60.3972 30.4092C59.8629 30.4092 59.3012 30.3357 58.7273 30.1897C58.224 30.0624 57.7448 29.8923 57.2965 29.6816V30.8416H57.2976Z" fill="white"/>
<path d="M70.482 30.2822C70.7574 30.2822 71.0229 30.2613 71.2795 30.2218C71.5362 30.1812 71.7399 30.1395 71.8897 30.0956V31.2831C71.7212 31.3643 71.4723 31.4312 71.1429 31.4839C70.8147 31.5366 70.5184 31.5629 70.2562 31.5629C68.2659 31.5629 67.2713 30.5192 67.2713 28.4307V22.3331H65.7975V21.5847L67.2713 20.9393L67.9288 18.751H68.8298V21.1259H71.8148V22.332H68.8298V28.3638C68.8298 28.9805 68.9774 29.4547 69.2715 29.785C69.5645 30.1175 69.9688 30.2822 70.482 30.2822Z" fill="white"/>
<path d="M70.2565 31.6909C68.1901 31.6909 67.1426 30.5935 67.1426 28.4292V22.4601H65.6699V21.4998L67.1657 20.8446L67.8332 18.6211H68.9589V20.996H71.9439V22.459H68.9589V28.3623C68.9589 28.9439 69.0966 29.3939 69.3676 29.699C69.6385 30.003 70.0031 30.1512 70.4823 30.1512C70.7488 30.1512 71.011 30.1314 71.2599 30.0919C71.511 30.0524 71.7115 30.0107 71.8536 29.969L72.0188 29.9207V31.3606L71.9461 31.3957C71.7655 31.4824 71.5099 31.5526 71.1641 31.6075C70.8292 31.6646 70.5241 31.6909 70.2565 31.6909ZM65.9277 22.2044H67.4014V28.4303C67.4014 30.4519 68.3355 31.4341 70.2576 31.4341C70.5109 31.4341 70.8028 31.4078 71.1244 31.3562C71.3943 31.3123 71.608 31.2596 71.7622 31.1982V30.2609C71.6344 30.2906 71.4824 30.3191 71.3018 30.3476C71.0396 30.3893 70.7642 30.4102 70.4834 30.4102C69.9337 30.4102 69.4942 30.2291 69.1759 29.8713C68.862 29.5179 68.7023 29.0109 68.7023 28.3645V22.2044H71.6873V21.255H68.7023V18.8801H68.026L67.3794 21.0344L65.9288 21.6699V22.2044H65.9277Z" fill="white"/>
<path d="M83.0169 26.2425C83.0169 27.9128 82.5951 29.2177 81.7502 30.1561C80.9054 31.0944 79.7389 31.563 78.2497 31.563C77.33 31.563 76.5127 31.3479 75.8001 30.9177C75.0863 30.4875 74.5356 29.8707 74.1479 29.0663C73.7601 28.2618 73.5663 27.3202 73.5663 26.2425C73.5663 24.5721 73.9848 23.2705 74.8242 22.3376C75.6624 21.4059 76.8266 20.9395 78.3158 20.9395C79.7555 20.9395 80.8988 21.4158 81.7458 22.3706C82.5929 23.3254 83.0169 24.6149 83.0169 26.2425ZM75.1788 26.2425C75.1788 27.5517 75.4421 28.5494 75.9675 29.2353C76.4929 29.9212 77.2661 30.2636 78.2861 30.2636C79.3061 30.2636 80.0804 29.9223 80.6091 29.2397C81.1378 28.557 81.4022 27.5583 81.4022 26.2425C81.4022 24.9398 81.1378 23.9498 80.6091 23.2738C80.0804 22.5977 79.2994 22.2586 78.2674 22.2586C77.2474 22.2586 76.4775 22.5923 75.9587 23.2595C75.4388 23.9268 75.1788 24.9211 75.1788 26.2425Z" fill="white"/>
<path d="M78.2486 31.6911C77.3091 31.6911 76.462 31.4672 75.7317 31.0271C75.0004 30.5859 74.4276 29.945 74.03 29.1208C73.6356 28.3031 73.4352 27.3341 73.4352 26.241C73.4352 24.5454 73.8692 23.2021 74.7261 22.2506C75.5864 21.2947 76.7936 20.8096 78.3136 20.8096C79.7841 20.8096 80.9715 21.3056 81.8405 22.2835C82.7063 23.258 83.1447 24.5893 83.1447 26.241C83.1447 27.9366 82.7074 29.2821 81.8449 30.2402C80.9792 31.2038 79.7686 31.6911 78.2486 31.6911ZM78.3136 21.0686C76.8696 21.0686 75.7273 21.524 74.9178 22.424C74.1049 23.3272 73.6929 24.6123 73.6929 26.2421C73.6929 27.2968 73.8846 28.2285 74.2624 29.0099C74.6369 29.788 75.1766 30.3927 75.865 30.8076C76.5545 31.2235 77.3564 31.4342 78.2486 31.4342C79.6926 31.4342 80.8382 30.9755 81.6533 30.0701C82.4717 29.1603 82.8869 27.8729 82.8869 26.2421C82.8869 24.6551 82.4695 23.381 81.6478 22.4558C80.8294 21.535 79.7081 21.0686 78.3136 21.0686ZM78.2861 30.3916C77.2286 30.3916 76.4136 30.0284 75.865 29.3128C75.3242 28.6071 75.0499 27.5744 75.0499 26.2421C75.0499 24.8977 75.3209 23.8671 75.8562 23.1801C76.3992 22.4832 77.2099 22.1298 78.2673 22.1298C79.3369 22.1298 80.1586 22.4876 80.7104 23.1944C81.2545 23.8913 81.531 24.9163 81.531 26.2421C81.531 27.5799 81.2556 28.6148 80.7115 29.3183C80.1586 30.0306 79.3435 30.3916 78.2861 30.3916ZM78.2673 22.3866C77.2936 22.3866 76.5512 22.7071 76.0611 23.3382C75.5621 23.9791 75.3088 24.9558 75.3088 26.2421C75.3088 27.5163 75.5654 28.4963 76.071 29.157C76.5689 29.8067 77.3135 30.1348 78.2872 30.1348C79.2598 30.1348 80.0077 29.8067 80.5077 29.1614C81.0155 28.5051 81.2744 27.5228 81.2744 26.2432C81.2744 24.9756 81.0166 24.0032 80.5088 23.3535C80.0066 22.7115 79.2532 22.3866 78.2673 22.3866Z" fill="white"/>
<path d="M90.6325 20.9395C91.0896 20.9395 91.4993 20.9768 91.8617 21.0514L91.6458 22.4913C91.2206 22.398 90.845 22.3508 90.519 22.3508C89.6863 22.3508 88.9747 22.6877 88.3833 23.3605C87.7918 24.0332 87.4966 24.8728 87.4966 25.8759V31.3743H85.9391V21.1249H87.2245L87.4029 23.0236H87.4778C87.859 22.3563 88.3194 21.8427 88.858 21.4805C89.3966 21.1205 89.9881 20.9395 90.6325 20.9395Z" fill="white"/>
<path d="M87.6265 31.5042H85.8102V20.9981H87.3423L87.5053 22.731C87.8677 22.1581 88.2973 21.7038 88.7864 21.3756C89.3437 21.0014 89.9649 20.8115 90.6324 20.8115C91.0961 20.8115 91.518 20.8499 91.8881 20.9268L92.0071 20.9509L91.7526 22.6476L91.6182 22.618C91.2041 22.5269 90.834 22.4808 90.5201 22.4808C89.7303 22.4808 89.0452 22.8056 88.4824 23.4466C87.9151 24.093 87.6276 24.9106 87.6276 25.8775V31.5042H87.6265ZM86.069 31.2474H87.3688V25.8775C87.3688 24.8458 87.6783 23.9712 88.2874 23.2776C88.902 22.5785 89.6532 22.224 90.5201 22.224C90.8186 22.224 91.16 22.2624 91.5389 22.3392L91.7163 21.1561C91.3924 21.0991 91.029 21.0694 90.6324 21.0694C90.0167 21.0694 89.445 21.245 88.9306 21.5896C88.4119 21.9386 87.9614 22.4424 87.5913 23.0899L87.5538 23.1546H87.2862L87.1077 21.256H86.0679V31.2474H86.069Z" fill="white"/>
<path d="M98.3241 31.5629C96.804 31.5629 95.6034 31.102 94.7245 30.179C93.8455 29.256 93.406 27.9752 93.406 26.3356C93.406 24.6839 93.8147 23.3713 94.6308 22.399C95.447 21.4266 96.5441 20.9404 97.9209 20.9404C99.2097 20.9404 100.23 21.363 100.981 22.2069C101.732 23.052 102.108 24.1659 102.108 25.5498V26.5321H95.0208C95.0516 27.7349 95.3567 28.6491 95.9361 29.2725C96.5144 29.8958 97.3294 30.2075 98.3814 30.2075C99.4883 30.2075 100.584 29.977 101.666 29.515V30.8989C101.115 31.136 100.594 31.3061 100.103 31.4082C99.6117 31.5124 99.0191 31.5629 98.3241 31.5629ZM97.9022 22.2398C97.0761 22.2398 96.4174 22.5076 95.9262 23.0443C95.4349 23.581 95.1452 24.3228 95.0582 25.27H100.436C100.436 24.291 100.216 23.5414 99.7791 23.0212C99.3407 22.4999 98.7151 22.2398 97.9022 22.2398Z" fill="white"/>
<path d="M98.324 31.6909C96.7743 31.6909 95.5307 31.2124 94.6308 30.2664C93.732 29.3237 93.2771 28.0001 93.2771 26.3341C93.2771 24.6594 93.699 23.3062 94.5317 22.3152C95.3699 21.3165 96.5099 20.8105 97.9209 20.8105C99.2426 20.8105 100.304 21.2517 101.077 22.1209C101.845 22.9868 102.235 24.1403 102.235 25.5494V26.6601H95.154C95.2025 27.7609 95.4977 28.6103 96.0308 29.1843C96.5815 29.778 97.3723 30.0787 98.3813 30.0787C99.4662 30.0787 100.554 29.8494 101.615 29.3972L101.795 29.3204V30.983L101.717 31.0171C101.161 31.2563 100.627 31.4308 100.129 31.534C99.6315 31.6382 99.0245 31.6909 98.324 31.6909ZM97.9209 21.0685C96.5903 21.0685 95.5175 21.5437 94.7299 22.4809C93.9369 23.4247 93.5348 24.7219 93.5348 26.3352C93.5348 27.9332 93.9666 29.1964 94.8181 30.0908C95.6673 30.983 96.8469 31.4352 98.324 31.4352C99.0069 31.4352 99.5962 31.3847 100.076 31.2838C100.534 31.1883 101.025 31.0302 101.537 30.8151V29.7089C100.501 30.1259 99.4398 30.3366 98.3813 30.3366C97.2975 30.3366 96.4427 30.0085 95.8413 29.3599C95.2432 28.7157 94.9238 27.7652 94.8918 26.5361L94.8885 26.4044H101.979V25.5505C101.979 24.205 101.611 23.1098 100.885 22.2921C100.162 21.48 99.1655 21.0685 97.9209 21.0685ZM100.564 25.398H94.9161L94.9293 25.2575C95.0185 24.2863 95.3225 23.5114 95.8303 22.9572C96.3447 22.3953 97.0408 22.1111 97.9011 22.1111C98.7503 22.1111 99.4156 22.3887 99.8771 22.9375C100.333 23.4796 100.564 24.2643 100.564 25.2696V25.398ZM95.2014 25.1412H100.306C100.287 24.2599 100.076 23.5751 99.6799 23.1032C99.2636 22.6093 98.682 22.369 97.9011 22.369C97.1168 22.369 96.4846 22.6258 96.0209 23.1317C95.5759 23.6168 95.3005 24.2928 95.2014 25.1412Z" fill="white"/>
</svg>
