<svg width="162" height="91" fill="none" xmlns="http://www.w3.org/2000/svg"><path d="M26.302 52.587V40.276l18.767.448v24.844c0 6.344-1.567 11.473-4.772 15.498-3.32 4.163-8.346 7.006-15.346 8.502-7.508 1.607-13.604.906-18.006-2.274C2.361 83.98 0 78.338 0 70.47V19.93C0 12.063 2.361 6.42 6.945 3.108 11.347-.078 17.448-.774 24.951.833c7 1.496 12.025 4.34 15.346 8.503 3.205 4.024 4.772 9.153 4.772 15.497v7.614l-12.274-.834v-8.944c0-5.488-2.416-8.602-7.43-9.375-5.274-.812-8.01 1.723-8.01 7.63v48.563c0 5.825 2.736 8.315 8.01 7.51 5.014-.768 7.43-3.844 7.43-9.254V52.356l-6.493.231zM61.74 19.708V39.59l12.836.42v9.429l-12.836.348V70.69l15.843-2.369v9.248l-26.595 5.56V7.264l26.595 5.56v9.247L61.74 19.708zm34.94 53.87l-8.462-41.905v43.671l-6.802 1.425v-63.14l9.317 1.95 6.813 35.18V16.998l5.401 1.126v54.14l-6.267 1.314zm30.509-37.202c0 1.276-.325 2.275-.982 2.993-.656.718-1.566 1.076-2.736 1.076-.728 0-1.373-.165-1.936-.496a3.238 3.238 0 01-1.291-1.425c-.298-.618-.452-1.336-.452-2.153 0-1.27.325-2.258.976-2.97.651-.713 1.567-1.066 2.747-1.066 1.131 0 2.025.364 2.687 1.093.656.729.987 1.712.987 2.948zm-5.693 0c0 1.806.668 2.711 2.003 2.711 1.318 0 1.98-.905 1.98-2.71 0-1.79-.662-2.684-1.991-2.684-.695 0-1.203.232-1.517.696-.315.458-.475 1.12-.475 1.987zm14.476 3.925h-1.666v-4.809c0-.601-.122-1.054-.364-1.352-.243-.298-.629-.447-1.159-.447-.7 0-1.213.21-1.539.623-.325.414-.485 1.11-.485 2.087v3.898h-1.661v-7.823h1.302l.232 1.027h.083a2.29 2.29 0 011.004-.861 3.342 3.342 0 011.439-.304c1.876 0 2.814.955 2.814 2.865v5.096zm3.971.001h-1.661V29.293h1.661v11.009zm2.28-9.9c0-.298.083-.524.243-.684.165-.16.397-.243.695-.243.292 0 .519.082.684.242.16.16.243.387.243.685 0 .282-.083.508-.243.668-.165.16-.392.243-.684.243-.303 0-.535-.083-.695-.243-.16-.16-.243-.386-.243-.668zm1.76 9.9h-1.66v-7.824h1.66v7.823zm9.252-.001h-1.666v-4.809c0-.601-.121-1.054-.364-1.352-.243-.298-.629-.447-1.158-.447-.701 0-1.214.21-1.54.623-.325.414-.485 1.11-.485 2.087v3.898h-1.66v-7.823h1.301l.232 1.027h.083a2.29 2.29 0 011.004-.861 3.35 3.35 0 011.44-.304c1.875 0 2.813.955 2.813 2.865v5.096zm5.726.139c-1.214 0-2.168-.354-2.852-1.066-.684-.712-1.026-1.69-1.026-2.932 0-1.275.319-2.28.954-3.014.634-.734 1.511-1.099 2.62-1.099 1.032 0 1.848.315 2.444.939.596.63.899 1.49.899 2.59v.899h-5.207c.022.762.226 1.342.612 1.75.386.409.932.613 1.633.613a5.91 5.91 0 001.291-.133 6.8 6.8 0 001.285-.436v1.353a4.97 4.97 0 01-1.23.409 7.752 7.752 0 01-1.423.127zm-.304-6.847c-.529 0-.949.166-1.269.503-.32.337-.507.823-.568 1.463h3.547c-.011-.646-.165-1.137-.469-1.469-.298-.33-.711-.497-1.241-.497zM125.508 54.58c0 .762-.276 1.353-.833 1.756-.558.409-1.352.613-2.389.613-1.043 0-1.876-.16-2.51-.475V55.04c.921.425 1.776.635 2.565.635 1.021 0 1.534-.31 1.534-.928a.725.725 0 00-.171-.497c-.116-.132-.298-.27-.557-.408a9.704 9.704 0 00-1.082-.48c-.899-.348-1.511-.696-1.826-1.05-.32-.347-.479-.8-.479-1.358 0-.668.27-1.187.81-1.562.541-.37 1.275-.558 2.201-.558.922 0 1.788.188 2.61.558l-.535 1.253c-.844-.348-1.55-.525-2.13-.525-.877 0-1.313.249-1.313.751 0 .243.116.453.342.624.227.171.729.403 1.495.701.646.249 1.115.48 1.407.685.292.21.508.447.651.718.138.281.21.602.21.982zm4.704 1.02c.402 0 .811-.066 1.213-.193v1.253c-.182.083-.419.15-.711.199a4.832 4.832 0 01-.899.083c-1.573 0-2.362-.828-2.362-2.49v-4.213h-1.07v-.734l1.148-.608.568-1.656h1.026v1.74h2.229v1.258h-2.229v4.19c0 .404.099.696.298.89.204.187.463.281.789.281zm9.716-2.72c0 1.28-.325 2.274-.982 2.992-.656.718-1.567 1.076-2.736 1.076-.728 0-1.374-.165-1.936-.497a3.237 3.237 0 01-1.291-1.424c-.304-.618-.452-1.336-.452-2.153 0-1.27.325-2.258.976-2.97.651-.713 1.567-1.066 2.747-1.066 1.131 0 2.025.364 2.687 1.093.656.734.987 1.712.987 2.948zm-5.693 0c0 1.805.668 2.71 2.003 2.71 1.318 0 1.98-.905 1.98-2.71 0-1.79-.662-2.684-1.992-2.684-.695 0-1.202.232-1.517.696-.314.463-.474 1.126-.474 1.987zm11.561-4.036c.337 0 .612.022.827.072l-.165 1.55a3.215 3.215 0 00-.734-.082c-.662 0-1.202.215-1.616.652-.414.436-.618.999-.618 1.69v4.09h-1.66v-7.834h1.302l.22 1.38h.083a3.08 3.08 0 011.015-1.11 2.393 2.393 0 011.346-.408zm5.695 8.104c-1.214 0-2.168-.353-2.852-1.065-.684-.713-1.026-1.69-1.026-2.932 0-1.275.32-2.28.954-3.014.635-.73 1.512-1.1 2.621-1.1 1.031 0 1.848.316 2.443.94.596.629.9 1.49.9 2.589v.9h-5.208c.022.762.226 1.341.612 1.75.387.409.933.613 1.633.613a5.94 5.94 0 001.291-.133 6.784 6.784 0 001.285-.436v1.353a4.942 4.942 0 01-1.23.408 6.947 6.947 0 01-1.423.127zm-.303-6.846c-.53 0-.949.166-1.269.503-.32.336-.508.822-.568 1.463h3.547c-.011-.646-.166-1.138-.469-1.469-.298-.331-.712-.497-1.241-.497z" fill="#000"/></svg>