<svg width="473" height="234" fill="none" xmlns="http://www.w3.org/2000/svg"><path d="M0 0l35 5.3c12.82 1.94 22.06 5.31 27.97 10.09 5.82 4.71 8.7 11.1 8.7 19.25 0 5.36-1.25 9.8-3.77 13.34-2.53 3.57-5.9 5.72-10.11 6.45v.67c5.56 2.08 9.53 5.05 11.97 8.92 2.42 3.85 3.63 8.67 3.63 14.49 0 8.65-2.96 15.35-8.96 20.16-6.1 4.89-14.57 7.26-25.58 7.04L0 104.93V0zm27.38 43.03l7.88.8c3.7.37 6.53-.13 8.53-1.51 1.98-1.37 2.97-3.61 2.97-6.72 0-5.54-3.96-8.81-12.02-9.81l-7.36-.92v18.16zm0 20.03v21.28l9.19.44c7.98.38 11.9-2.94 11.9-9.95 0-3.28-1.05-5.87-3.15-7.78-2.11-1.92-5.2-3.03-9.28-3.34l-8.66-.65zm121.851 44.87l-19.3-.39V39.09l-18.46-2.26V16.89l54.23 8.21v18.37l-16.47-2.02v66.48zm25.75-81.42l21.55 3.26c8 1.21 13.8 3.65 17.52 7.3 3.68 3.61 5.5 8.64 5.5 15.13 0 4.27-.79 7.83-2.39 10.69-1.6 2.88-3.73 4.64-6.38 5.28v.53c3.5 1.57 6.02 3.88 7.56 6.93 1.54 3.03 2.3 6.86 2.3 11.5 0 6.89-1.88 12.25-5.67 16.11-3.85 3.91-9.17 5.82-16.05 5.68l-23.95-.48V26.51h.01zm16.82 33.14l4.89.49c2.3.23 4.07-.21 5.31-1.34 1.24-1.12 1.86-2.91 1.86-5.37 0-4.38-2.48-6.88-7.5-7.51l-4.56-.57v14.3zm0 15.76v16.74l5.71.27c4.97.24 7.43-2.42 7.43-7.97 0-2.6-.66-4.63-1.97-6.12-1.32-1.49-3.24-2.33-5.78-2.52l-5.39-.4zm83.99.62c0 11.56-1.86 20.26-5.63 26.16-3.82 5.99-9.51 8.94-17.2 8.8-7.79-.14-13.92-3.49-18.26-10.11-4.41-6.73-6.64-16.44-6.64-29.05 0-12.48 2.22-21.73 6.61-27.68 4.32-5.87 10.48-8.15 18.37-6.94 7.68 1.18 13.36 5.1 17.16 11.7 3.74 6.51 5.59 15.53 5.59 27.12zm-32.88-2.83c0 14.12 3.4 21.34 10.06 21.66 3.33.16 5.77-1.39 7.35-4.63 1.57-3.22 2.35-8.33 2.35-15.33 0-7.03-.79-12.31-2.39-15.86-1.6-3.56-4.01-5.55-7.25-5.96-6.7-.83-10.12 5.87-10.12 20.12zm65.529 37.92l-24.65-.49V42.99l24.65 3.73v13.96l-13.13-1.61v10.4l12.18 1.25v13.99l-12.18-.9V96.3l13.13.64v14.18zm23 .47l-7.46-45.06-.23-.03c.35 7.69.53 13.64.53 17.88v27.07l-9.03-.18v-63.5l13.44 2.04 7.46 44.27.19.01 7.08-42.05 11.96 1.81v58.23l-8.17-.16v-26c0-1.35.01-2.85.03-4.5.02-1.65.13-5.68.31-12.09l-.21-.02-6.86 42.48-9.04-.2zM80.83 220.86l-23.78 3.61v-39.72l-29.54 2.9v41.3L0 233.13V128.19l27.51-.56v37.56l29.54-2.04v-36.12l23.78-.48v94.31zm64.05-9.72l-3.48-15.66-23.93 3.04-3.89 17.36-23.71 3.6 25.97-94.02 26.57-.53 22.6 83.14-20.13 3.07zm-7.49-34.4l-3.11-14.02c-.73-3.13-1.62-7.2-2.67-12.2-1.05-5.02-1.75-8.63-2.08-10.82-.3 2.06-.9 5.46-1.79 10.2-.9 4.76-2.89 14.19-6 28.38l15.65-1.54zm83.48 22.87l-15.35 2.33v-60.71l-16.39.81v62.39l-17.06 2.59V124.7l48.8-.99v75.9zm47.44-54.71c0 7.78-1.53 13.93-4.61 18.48-3.12 4.6-7.61 7.24-13.55 7.88l-3.78.41v24.07l-13.9 2.11v-74.38l17.68-.36c6.18-.13 10.73 1.73 13.73 5.54 2.96 3.76 4.43 9.16 4.43 16.25zm-21.95 10.79l2.46-.19c2.01-.16 3.6-1.1 4.77-2.83 1.17-1.72 1.75-4 1.75-6.87 0-4.82-1.82-7.14-5.5-6.96l-3.48.17v16.68zm55.44 31.64l-2.01-11.98-13.66 1.74-2.2 12.95-13.27 2.01 14.55-69.94 15.17-.3 13.13 63.73-11.71 1.79zm-4.31-26.28l-1.79-10.67c-.42-2.38-.93-5.47-1.53-9.27-.6-3.81-1-6.54-1.19-8.2-.17 1.55-.51 4.11-1.02 7.69s-1.65 10.68-3.42 21.32l8.95-.87zm20.18-39.32l12.92-.26c4.85-.1 8.38 1.05 10.66 3.42 2.26 2.35 3.38 6.06 3.38 11.14 0 3.35-.49 6.23-1.47 8.67-.98 2.45-2.28 4.09-3.91 4.9v.41c2.14.81 3.68 2.32 4.63 4.52.94 2.2 1.41 5.11 1.41 8.75 0 5.4-1.16 9.82-3.48 13.26-2.35 3.48-5.6 5.55-9.77 6.18l-14.37 2.18v-63.17zm10.06 23.54l2.95-.21c1.39-.1 2.46-.66 3.22-1.69.75-1.02 1.13-2.49 1.13-4.41 0-3.42-1.5-5.05-4.54-4.91l-2.75.13v11.09h-.01zm0 12.23v12.99l3.44-.43c3.01-.37 4.5-2.72 4.5-7.05 0-2.02-.4-3.54-1.2-4.54-.8-1.01-1.97-1.44-3.5-1.29l-3.24.32zm49.75 18.34l-8.07 1.23v-43.93l-5.86.29c-.33 6.51-.76 13.16-1.31 19.95-.55 6.81-1.08 11.61-1.58 14.4-.5 2.8-1.14 5.06-1.92 6.79-.78 1.73-1.74 3.11-2.9 4.11-1.16 1.01-2.58 1.65-4.25 1.91-1.28.2-2.45.08-3.51-.35v-12.35c.91.43 1.65.6 2.23.53.78-.1 1.38-.76 1.79-1.97.41-1.21.79-3.23 1.13-6.06.34-2.82.82-8.04 1.42-15.63.61-7.57 1.16-15.51 1.68-23.79l21.17-.43v55.3h-.02zm22.37-3.39l-16.16 2.45v-54.51l16.16-.33v11.36l-8.64.42v8.42l8.02-.56v11.38l-8.02.79v10.1l8.64-1.06v11.54zm25.28-3.84l-6.34.96v-20.34l-7.6.75v20.75l-6.82 1.04v-51.79l6.82-.14v18.87l7.6-.52v-18.5l6.34-.13v49.05zm4.9-49.16l5.3-.11v20.5c0 2.18-.08 6.54-.24 13.08l.12-.01 8.46-33.74 6.78-.14v45.74l-4.84.73v-19.41c0-2.94.08-7.34.25-13.21l-.11.01-8.43 33.87-7.3 1.11v-48.42h.01zm24.68-.5l4.62-.09V138c0 2.03-.07 6.1-.21 12.22l.1-.01 7.39-31.5 5.94-.12v42.83l-4.24.64V143.9c0-2.75.07-6.87.22-12.36l-.1.01-7.37 31.62-6.36.97v-45.19h.01z" fill="#000"/></svg>