<svg width="183" height="95" viewBox="0 0 183 95" fill="none" xmlns="http://www.w3.org/2000/svg">
<path d="M22.1194 8.91328C19.6571 8.70481 17.7164 9.59601 16.313 11.599C14.9007 13.6142 14.1902 16.4945 14.1902 20.233C14.1902 28.0054 17.0602 31.9836 22.6899 32.1677C24.3628 32.2216 25.9746 32.0322 27.5215 31.6014C29.058 31.1723 30.5927 30.6511 32.1257 30.0344V38.8977C29.0668 40.2858 25.5546 40.9616 21.5681 40.9112C15.7302 40.8365 11.1505 38.9968 7.90958 35.3573C4.62313 31.6657 2.9624 26.3758 2.9624 19.526C2.9624 15.242 3.76914 11.5382 5.37212 8.43033C6.96809 5.34155 9.23956 3.08316 12.1725 1.64995C15.067 0.235853 18.4252 -0.266204 22.2244 0.129882C26.3018 0.555502 30.129 1.86884 33.7164 4.05079L30.7047 12.0351C29.3468 11.2516 27.9818 10.5706 26.6063 9.99209C25.2238 9.41012 23.7293 9.05052 22.1194 8.91328Z" fill="black"/>
<path d="M54.1198 40.8258L45.0567 40.6973V11.3678L36.5168 10.6555V2.1709L61.9632 4.79063V12.7766L54.1198 12.1234V40.8258Z" fill="black"/>
<path d="M84.5412 41.2556L83.1482 34.814L73.6966 34.5239L72.1829 41.0819L63.062 40.9534L73.0631 5.79199L83.556 6.87602L92.6961 41.3738L84.5412 41.2556ZM81.5487 27.1407L80.3115 21.4114C80.0228 20.1328 79.6693 18.4772 79.2545 16.4429C78.838 14.4051 78.5633 12.9424 78.4303 12.0616C78.3113 12.8573 78.075 14.1671 77.7233 15.9912C77.3698 17.8188 76.5841 21.4235 75.3626 26.828L81.5487 27.1407Z" fill="black"/>
<path d="M106.966 41.5732L100.083 41.4759V15.9526L93.6344 15.4158V8.05176L112.952 10.0409V17.0262L106.966 16.5277V41.5732Z" fill="black"/>
<path d="M132.534 32.022C132.534 35.2098 131.747 37.6384 130.161 39.3166C128.562 41.0121 126.266 41.8442 123.245 41.8008L116.375 41.7035V10.3936L122.699 11.045V21.9826L123.013 22.0051C126.17 22.231 128.537 23.1951 130.147 24.8907C131.743 26.5706 132.534 28.9436 132.534 32.022ZM122.701 35.4217L122.983 35.4304C125.382 35.5086 126.569 34.3551 126.569 31.9699C126.569 29.6958 125.372 28.4954 122.951 28.3669L122.701 28.353V35.4217Z" fill="black"/>
<path d="M28.4388 92.0704L26.6083 84.8957L14.138 85.9727L12.1326 93.7503L0 94.9993L13.2998 52.9968L27.1438 52.8057L39.1119 90.9707L28.4388 92.0704ZM24.5031 76.3311L22.8739 69.9364C22.4924 68.5102 22.0287 66.66 21.4809 64.3825C20.9314 62.0998 20.5692 60.4599 20.3942 59.4662C20.2367 60.3973 19.9252 61.9348 19.4597 64.0802C18.9925 66.2309 17.9565 70.4854 16.3413 76.8749L24.5031 76.3311Z" fill="black"/>
<path d="M42.8884 52.744L54.636 52.5772C59.0389 52.5146 62.2466 53.1974 64.3169 54.6149C66.3643 56.0186 67.3811 58.2353 67.3811 61.2755C67.3811 63.275 66.9383 65.0035 66.0511 66.4628C65.1586 67.929 63.9791 68.9105 62.5039 69.4022V69.6489C64.4481 70.1283 65.8463 71.0282 66.7073 72.3433C67.5631 73.6549 67.9918 75.3956 67.9918 77.5706C67.9918 80.8018 66.9436 83.4424 64.8314 85.5097C62.6964 87.5996 59.7494 88.8434 55.9572 89.2343L42.8919 90.5806V52.744H42.8884ZM52.0425 66.8224L54.7235 66.6921C55.9887 66.6313 56.9617 66.2925 57.6477 65.6758C58.3302 65.0626 58.6714 64.1836 58.6714 63.037C58.6714 60.994 57.3047 60.016 54.545 60.1046L52.0425 60.1862V66.8224ZM52.0425 74.1413V81.9154L55.1715 81.6513C57.9085 81.4203 59.2629 80.0114 59.2629 77.4229C59.2629 76.2121 58.9007 75.3087 58.1762 74.7094C57.4482 74.1083 56.3877 73.8547 54.993 73.9467L52.0425 74.1413Z" fill="black"/>
<path d="M86.0005 86.1413L78.2901 86.9352V59.9057L71.0487 60.1507V52.3436L92.6941 52.0361V59.4193L86.0005 59.6452V86.1413Z" fill="black"/>
<path d="M119.733 67.1172C119.733 72.3358 118.77 76.3853 116.828 79.2864C114.865 82.2206 111.951 83.9022 108.038 84.3087C104.097 84.7187 101.017 83.6034 98.8435 80.9281C96.6438 78.2215 95.5343 74.0661 95.5343 68.4861C95.5343 62.967 96.6385 58.716 98.826 55.7592C100.987 52.8372 104.086 51.364 108.073 51.3119C111.984 51.2615 114.893 52.594 116.844 55.285C118.776 57.9481 119.733 61.8847 119.733 67.1172ZM102.956 68.0987C102.956 74.384 104.667 77.3807 108.041 77.0975C109.734 76.9551 110.978 76.1038 111.785 74.5473C112.588 72.9977 112.987 70.6559 112.987 67.5115C112.987 64.355 112.581 62.041 111.767 60.5644C110.95 59.0808 109.721 58.3633 108.075 58.4172C104.678 58.5266 102.956 61.7544 102.956 68.0987Z" fill="black"/>
<path d="M139.62 60.6719C139.62 63.9396 138.937 66.5038 137.562 68.3782C136.176 70.2683 134.186 71.3141 131.573 71.507L129.916 71.6286V81.6176L123.886 82.2395V51.5932L131.573 51.4837C134.295 51.4455 136.309 52.2325 137.641 53.8325C138.962 55.422 139.62 57.6978 139.62 60.6719ZM129.916 64.9976L130.992 64.9403C131.874 64.8934 132.573 64.5147 133.089 63.8076C133.603 63.1023 133.861 62.1538 133.861 60.9586C133.861 58.9503 133.057 57.9723 131.44 58.0279L129.918 58.0783V64.9976H129.916Z" fill="black"/>
<path d="M160.821 64.7149C160.821 69.3203 160.072 72.8833 158.562 75.4249C157.037 77.9908 154.778 79.4396 151.753 79.7541C148.713 80.0702 146.342 79.0574 144.672 76.6896C142.985 74.2974 142.135 70.651 142.135 65.7659C142.135 60.9347 142.98 57.2188 144.658 54.6355C146.319 52.0801 148.704 50.7911 151.779 50.7529C154.804 50.7146 157.058 51.8925 158.574 54.2673C160.075 56.6212 160.821 60.0974 160.821 64.7149ZM147.831 65.4741C147.831 70.988 149.149 73.6338 151.753 73.4149C153.06 73.3055 154.022 72.5672 154.647 71.2052C155.268 69.8484 155.578 67.7881 155.578 65.0224C155.578 62.2429 155.263 60.2033 154.633 58.9004C153.999 57.5923 153.049 56.9565 151.777 56.9982C149.157 57.0816 147.831 59.908 147.831 65.4741Z" fill="black"/>
<path d="M171.594 77.3247L168.103 58.4394L167.996 58.4429C168.162 61.714 168.244 64.2539 168.244 66.0693V77.6687L164.057 78.0995V51.0232L170.308 50.9346L173.816 69.4951L173.907 69.4881L177.265 50.8356L183.002 50.7539V76.1504L179.075 76.5551V65.2667C179.075 64.6795 179.08 64.028 179.091 63.3105C179.101 62.5948 179.15 60.8367 179.239 58.0398L179.141 58.0433L175.871 76.8835L171.594 77.3247Z" fill="black"/>
</svg>
