<svg width="274" height="143" viewBox="0 0 274 143" fill="none" xmlns="http://www.w3.org/2000/svg">
<path d="M50.1125 62.6206L35.4449 64.43V16.9435L19.4455 17.073V66.4057L2.42114 68.5079V2.66309L50.1125 3.84054V62.6206Z" fill="black"/>
<path d="M102.091 30.595C102.091 39.1886 100.464 45.8741 97.1626 50.7196C93.7994 55.6575 88.7547 58.5795 81.8904 59.4395C74.8604 60.321 69.2848 58.561 65.3049 54.0577C61.2421 49.462 59.177 42.2925 59.177 32.6263C59.177 23.0679 61.2299 15.7536 65.2711 10.7694C69.2296 5.88703 74.8389 3.58452 81.9487 3.77563C88.8131 3.96057 93.8455 6.37404 97.1902 10.9544C100.47 15.4515 102.091 21.9768 102.091 30.595ZM72.7952 32.0345C72.7952 42.7486 75.876 47.8222 81.8873 47.2704C84.87 46.9961 87.0517 45.5443 88.4571 42.9243C89.8533 40.3259 90.5468 36.4114 90.5468 31.1622C90.5468 25.8914 89.8441 22.0138 88.4264 19.5171C86.9995 16.9988 84.8485 15.7412 81.9456 15.7597C75.8975 15.7906 72.7952 21.2185 72.7952 32.0345Z" fill="black"/>
<path d="M143.136 56.5117L134.9 57.908V52.1533L114.982 54.613V61.2863L105.122 62.9569V44.6078L108.283 44.3211C110.529 39.0719 112.358 33.1322 113.782 26.4898C115.196 19.9029 116.105 12.909 116.516 5.47754L138.91 6.02928V41.5439L143.133 41.1617V56.5117H143.136ZM130.146 42.3422V16.1825L124.147 16.2318C123.503 25.5867 121.723 34.6056 118.768 43.3748L130.146 42.3422Z" fill="black"/>
<path d="M164.296 48.525L162.992 40.8038L154.078 41.6576L152.639 49.9645L143.903 51.0433L153.477 6.21387L163.373 6.46354L171.876 47.5911L164.296 48.525ZM161.492 31.5753L160.329 24.6801C160.056 23.142 159.724 21.1447 159.334 18.6881C158.942 16.2253 158.684 14.456 158.558 13.3834C158.445 14.379 158.224 16.0157 157.889 18.3028C157.555 20.596 156.812 25.1301 155.655 31.9452L161.492 31.5753Z" fill="black"/>
<path d="M191.229 19.3689C191.229 23.601 190.517 26.9052 189.078 29.3064C187.623 31.7322 185.531 33.0576 182.766 33.2641L181.004 33.3936V46.4627L174.548 47.261V6.91016L182.766 7.11359C185.641 7.18448 187.761 8.29721 189.161 10.4333C190.542 12.5447 191.229 15.5191 191.229 19.3689ZM181.008 24.7199L182.152 24.6736C183.088 24.6336 183.828 24.1589 184.374 23.2496C184.917 22.3465 185.187 21.1166 185.187 19.5601C185.187 16.9431 184.34 15.6424 182.625 15.6547L181.008 15.6671V24.7199Z" fill="black"/>
<path d="M212.856 25.1449C212.856 30.9798 212.107 35.4831 210.595 38.6887C209.063 41.9375 206.787 43.7653 203.718 44.1506C200.616 44.539 198.185 43.2228 196.464 40.162C194.721 37.0581 193.837 32.336 193.837 26.0295C193.837 19.7909 194.715 15.0195 196.449 11.7522C198.161 8.53114 200.606 6.97765 203.743 7.06395C206.808 7.14718 209.082 8.74382 210.604 11.8231C212.111 14.8653 212.856 19.2946 212.856 25.1449ZM199.717 25.7922C199.717 32.8723 201.067 36.2875 203.721 36.044C205.05 35.9208 206.026 34.993 206.655 33.2669C207.284 31.5469 207.597 28.93 207.597 25.4069C207.597 21.8653 207.281 19.2577 206.642 17.5778C206.001 15.8887 205.041 15.041 203.749 15.0503C201.076 15.0626 199.717 18.6443 199.717 25.7922Z" fill="black"/>
<path d="M230.077 40.4056L225.769 40.9389V28.813C223.891 30.2678 222.184 31.0631 220.662 31.1802C219.048 31.3066 217.775 30.61 216.848 29.0873C215.915 27.5492 215.449 25.3237 215.449 22.414V7.9209L220.165 8.03803V19.2269C220.165 20.8667 220.331 22.0318 220.662 22.7223C220.994 23.4096 221.519 23.7394 222.234 23.7055C223.203 23.6624 224.382 23.0983 225.765 22.0226V8.17365L230.074 8.27845V40.4056H230.077Z" fill="black"/>
<path d="M245.533 38.4983L241.832 38.9545V26.5697L237.38 26.8501V39.5062L233.369 40.0025V8.3623L237.38 8.46094V19.9704L241.832 19.8348V8.5719L245.533 8.66437V38.4983Z" fill="black"/>
<path d="M257.258 27.7279C257.258 30.727 256.825 33.0726 255.954 34.7802C255.073 36.5033 253.812 37.4742 252.155 37.6776L248.384 38.1431V8.73145L251.854 8.81775V19.0973L252.026 19.0912C253.76 19.0418 255.061 19.7539 255.945 21.218C256.822 22.6667 257.258 24.8336 257.258 27.7279ZM251.854 31.6887L251.992 31.6763C253.309 31.553 253.962 30.3725 253.962 28.1316C253.962 25.9678 253.306 24.9229 251.974 25.0031L251.854 25.0092V31.6887ZM261.474 36.5279L258.332 36.9163V8.97803L261.474 9.05509V36.5279Z" fill="black"/>
<path d="M263.889 9.1143L266.513 9.17903V20.6607C266.513 21.8782 266.473 24.3194 266.396 27.9813L266.454 27.9751L270.64 9.28075L273.997 9.36397V34.9812L271.6 35.2771V24.4058C271.6 22.7598 271.643 20.2939 271.726 17.0143H271.671L267.498 35.7857L263.886 36.2327V9.1143H263.889ZM269.063 7.13545C267.918 7.09229 267.053 6.4974 266.473 5.34153C265.89 4.17641 265.561 2.39482 265.494 0.00292969L267.884 0.178623C267.909 1.36532 268.013 2.23146 268.194 2.77395C268.375 3.31644 268.667 3.59693 269.063 3.61851C269.775 3.65858 270.161 2.57051 270.226 0.354316L272.527 0.526926C272.34 5.00864 271.198 7.2125 269.063 7.13545Z" fill="black"/>
<path d="M29.6729 90.2973C25.9477 90.9815 22.9926 93.1792 20.8447 96.9058C18.6752 100.672 17.5828 105.512 17.5828 111.399C17.5828 123.639 21.9892 128.564 30.5351 126.253C33.0483 125.571 35.4571 124.545 37.7646 123.18C40.0446 121.826 42.3092 120.338 44.5645 118.71V132.328C40.0568 135.885 34.8342 138.579 28.8474 140.394C19.9578 143.088 12.8818 142.419 7.82173 138.228C2.63588 133.934 0 126.271 0 115.31C0 108.458 1.28265 102.18 3.82034 96.5266C6.33042 90.9384 9.89607 86.4104 14.459 82.9459C18.9299 79.5553 24.0697 77.4439 29.8263 76.5747C35.9389 75.6531 41.6157 76.2048 46.8844 78.1744L42.4657 91.6319C40.4619 90.9754 38.4397 90.476 36.3961 90.14C34.334 89.8041 32.094 89.8534 29.6729 90.2973Z" fill="black"/>
<path d="M82.7004 123.327L54.7152 131.754V73.6554L82.7004 69.374V81.0715L67.9652 83.7993V92.6302L81.6479 89.7791V101.51L67.9652 104.802V115.399L82.7004 111.442V123.327Z" fill="black"/>
<path d="M118.28 79.4128C118.28 84.8531 117.102 89.3225 114.721 92.8672C112.303 96.4612 108.811 98.85 104.171 100.018L101.204 100.767V117.757L90.2092 121.067V68.2239L104.174 66.0879C109.001 65.3481 112.539 66.1742 114.862 68.5229C117.148 70.8408 118.28 74.4626 118.28 79.4128ZM101.201 89.4859L103.131 89.0636C104.705 88.7184 105.948 87.8707 106.865 86.5207C107.777 85.1799 108.231 83.5062 108.231 81.4934C108.231 78.109 106.81 76.6788 103.932 77.212L101.201 77.7175V89.4859Z" fill="black"/>
<path d="M138.376 106.559L129.649 109.188V72.5734L121.324 74.1207V63.4651L145.842 59.7139V69.5681L138.376 70.9551V106.559Z" fill="black"/>
<path d="M150.055 59.067L156.895 58.019V76.4729C156.895 78.4333 156.794 82.3756 156.591 88.306L156.745 88.2659L167.417 56.4069L175.767 55.1309V95.2998L169.832 97.0876V79.9036C169.832 77.3021 169.936 73.3875 170.145 68.163L170.007 68.1907L159.442 100.216L150.061 103.043V59.067H150.055Z" fill="black"/>
<path d="M189.67 52.4577L195.24 51.6162V56.2058L195.654 56.1349C197.427 55.8359 198.956 56.1534 200.25 57.0812C201.53 57.9997 202.506 59.4238 203.181 61.3564C203.853 63.2767 204.191 65.536 204.191 68.1437C204.191 70.8654 203.862 73.3282 203.202 75.5382C202.54 77.7605 201.561 79.613 200.257 81.0987C198.94 82.5967 197.329 83.6201 195.411 84.1564L195.24 84.2057V89.945L189.67 91.6341V85.7684L189.369 85.8517C187.338 86.4219 185.583 86.3263 184.122 85.5527C182.643 84.7698 181.517 83.3704 180.75 81.3515C179.98 79.3202 179.593 76.7372 179.593 73.6148C179.593 70.6712 180.004 67.9741 180.82 65.5329C181.634 63.1071 182.76 61.193 184.196 59.7906C185.617 58.4035 187.258 57.5559 189.112 57.2415L189.667 57.149V52.4577H189.67ZM189.67 65.0213L189.326 65.0891C188.154 65.3233 187.249 66.0477 186.617 67.2652C185.982 68.4889 185.666 70.1534 185.666 72.2524C185.666 74.6351 185.976 76.2779 186.595 77.1749C187.212 78.0688 188.139 78.3585 189.372 78.0503L189.673 77.9763V65.0213H189.67ZM195.236 76.5831L195.408 76.5399C196.602 76.241 197.489 75.4981 198.078 74.3083C198.664 73.1247 198.956 71.4479 198.956 69.2718C198.956 67.3638 198.655 65.9306 198.05 64.975C197.443 64.0133 196.584 63.6404 195.467 63.8654L195.24 63.9116V76.5831H195.236Z" fill="black"/>
<path d="M207.259 50.3127L211.736 49.6285V64.5932C211.736 66.1806 211.669 69.3739 211.537 74.1762L211.638 74.1515L218.705 48.562L224.302 47.7051V80.6861L220.316 81.8851V67.8327C220.316 65.7059 220.386 62.5064 220.524 58.2405L220.432 58.259L213.411 83.9657L207.259 85.8182V50.3127Z" fill="black"/>
<path d="M240.811 75.7112L236.432 77.0304L232.001 62.229V78.365L227.781 79.635V47.1718L232.001 46.5245V61.9424L236.272 45.8711L240.531 45.2207L236.1 60.8081L240.811 75.7112Z" fill="black"/>
<path d="M250.375 72.8322L249.746 67.546L245.487 68.7111L244.806 74.509L240.722 75.7388L245.202 44.3853L249.93 43.6641L254.073 71.7194L250.375 72.8322ZM249.022 61.2457L248.464 56.5544C248.332 55.5095 248.175 54.1532 247.988 52.4857C247.801 50.8151 247.675 49.613 247.617 48.8824C247.561 49.5791 247.457 50.7288 247.297 52.3377C247.138 53.9467 246.785 57.1369 246.236 61.9176L249.022 61.2457Z" fill="black"/>
<path d="M260.584 69.756L257.436 70.7054V48.8362L254.496 49.3818V43.0846L263.331 41.7314V47.7389L260.581 48.2506V69.756H260.584Z" fill="black"/>
</svg>
