<svg width="19" height="18" viewBox="0 0 19 18" fill="none" xmlns="http://www.w3.org/2000/svg">
<path d="M9.35283 0.103516C5.95136 0.103516 3.17636 2.62624 3.17636 5.71849C3.17636 7.65164 4.26165 9.36822 5.90636 10.3813C2.759 11.6086 0.529297 14.4482 0.529297 17.7506H2.294C2.294 14.1971 5.444 11.3335 9.35283 11.3335C13.2617 11.3335 16.4116 14.1971 16.4116 17.7506H18.1764C18.1764 14.4482 15.9466 11.6094 12.7993 10.3805C13.6387 9.86537 14.3265 9.17105 14.8024 8.35832C15.2783 7.54559 15.5279 6.63921 15.5293 5.71849C15.5293 2.62624 12.7543 0.103516 9.35283 0.103516ZM9.35283 1.70779C11.7996 1.70779 13.7646 3.49416 13.7646 5.71849C13.7646 7.94282 11.7996 9.72918 9.35283 9.72918C6.90606 9.72918 4.94106 7.94282 4.94106 5.71849C4.94106 3.49416 6.90606 1.70779 9.35283 1.70779Z" />
</svg>
