<svg width="23" height="23" viewBox="0 0 23 23" fill="none" xmlns="http://www.w3.org/2000/svg"><path d="M11.311 7.541a3.78 3.78 0 00-3.773 3.773 3.78 3.78 0 003.773 3.773 3.78 3.78 0 003.773-3.773 3.78 3.78 0 00-3.773-3.773zm11.316 3.773c0-1.562.014-3.11-.074-4.67-.087-1.812-.5-3.42-1.825-4.744C19.4.573 17.795.162 15.984.074c-1.562-.087-3.11-.073-4.67-.073-1.562 0-3.11-.014-4.67.073C4.832.162 3.224.575 1.9 1.9.573 3.228.162 4.832.074 6.644c-.087 1.562-.073 3.11-.073 4.67s-.014 3.11.073 4.67c.088 1.812.501 3.42 1.826 4.744 1.327 1.328 2.932 1.738 4.744 1.826 1.562.088 3.11.073 4.67.073 1.562 0 3.11.015 4.67-.073 1.812-.088 3.42-.501 4.744-1.826 1.327-1.327 1.738-2.932 1.825-4.744.091-1.56.074-3.107.074-4.67zM11.311 17.12a5.797 5.797 0 01-5.805-5.805 5.797 5.797 0 015.805-5.805 5.797 5.797 0 015.805 5.805 5.797 5.797 0 01-5.805 5.805zm6.043-10.492c-.75 0-1.356-.606-1.356-1.356 0-.75.606-1.356 1.356-1.356a1.354 1.354 0 01.96 2.315 1.353 1.353 0 01-.96.397z"/></svg>
