<svg width="18" height="11" viewBox="0 0 18 11" fill="none" xmlns="http://www.w3.org/2000/svg">
<path d="M12.4682 0.41486C12.378 0.343403 12.2744 0.290527 12.1636 0.259284C12.0528 0.228042 11.9369 0.219051 11.8227 0.232831C11.7084 0.246611 11.5979 0.282889 11.4977 0.339571C11.3975 0.396254 11.3095 0.472218 11.2389 0.56308L5.13569 8.41001L2.14514 4.76554C2.075 4.67217 1.9868 4.59384 1.8858 4.5352C1.7848 4.47657 1.67305 4.43882 1.55718 4.4242C1.44131 4.40958 1.32368 4.41839 1.21128 4.45011C1.09888 4.48182 0.994001 4.5358 0.902861 4.60883C0.811722 4.68186 0.736183 4.77245 0.680729 4.87523C0.625274 4.97802 0.591035 5.09089 0.580042 5.20716C0.56905 5.32343 0.581529 5.44073 0.616739 5.55208C0.651948 5.66344 0.709171 5.76658 0.785009 5.8554L4.42075 10.3717C4.50281 10.4729 4.60649 10.5544 4.72418 10.6102C4.84187 10.666 4.97056 10.6948 5.10082 10.6943C5.23908 10.7005 5.37682 10.6737 5.50266 10.6161C5.6285 10.5585 5.73881 10.4717 5.82448 10.363L12.6513 1.64421C12.7209 1.55182 12.7714 1.44649 12.7999 1.33438C12.8284 1.22226 12.8343 1.1056 12.8173 0.991184C12.8002 0.876767 12.7606 0.766886 12.7007 0.667941C12.6407 0.568995 12.5617 0.482965 12.4682 0.41486ZM16.8276 0.41486C16.7374 0.343403 16.6338 0.290527 16.523 0.259284C16.4122 0.228042 16.2963 0.219051 16.1821 0.232831C16.0678 0.246611 15.9573 0.282889 15.8571 0.339571C15.7569 0.396254 15.6689 0.472218 15.5983 0.56308L9.4951 8.41001L8.96325 7.7561L7.86468 9.16854L8.82375 10.363C8.90581 10.4642 9.00949 10.5457 9.12718 10.6015C9.24486 10.6573 9.37356 10.6861 9.50382 10.6856C9.63478 10.685 9.76392 10.6549 9.88165 10.5976C9.99939 10.5402 10.1027 10.4571 10.1839 10.3543L17.0107 1.63549C17.0789 1.54337 17.1283 1.43869 17.1561 1.32744C17.1838 1.2162 17.1893 1.10058 17.1723 0.987202C17.1553 0.873823 17.1161 0.764911 17.057 0.666701C16.9978 0.568491 16.9199 0.482911 16.8276 0.41486Z" fill="black"/>
<path d="M5.5715 6.38759L6.69623 4.97515L6.52185 4.76589C6.45302 4.67053 6.3656 4.59008 6.26486 4.52938C6.16412 4.46868 6.05214 4.42899 5.93566 4.4127C5.81918 4.39641 5.70061 4.40385 5.58708 4.43459C5.47356 4.46532 5.36742 4.5187 5.27506 4.59152C5.1855 4.66347 5.11104 4.75241 5.05596 4.85323C5.00088 4.95405 4.96626 5.06477 4.95411 5.17901C4.94196 5.29325 4.9525 5.40877 4.98514 5.51892C5.01777 5.62907 5.07186 5.73169 5.14428 5.82087L5.5715 6.38759Z" fill="black"/>
</svg>
