<svg width="23" height="23" viewBox="0 0 23 23" fill="none" xmlns="http://www.w3.org/2000/svg"><path d="M14.992 0H8.287C2.166 0 .715 1.503.715 7.841v6.947c0 6.338 1.45 7.841 7.57 7.841h6.707c6.12 0 7.572-1.503 7.572-7.841V7.84c0-6.337-1.466-7.84-7.572-7.84zm3.361 16.142h-1.586c-.6 0-.786-.493-1.867-1.627-.939-.943-1.354-1.068-1.586-1.068-.327 0-.42.095-.42.56v1.484c0 .398-.12.637-1.138.637-1.682 0-3.549-1.053-4.857-3.016-1.974-2.877-2.514-5.032-2.514-5.477 0-.24.092-.464.536-.464h1.59c.402 0 .555.192.711.637.786 2.35 2.095 4.408 2.635 4.408.2 0 .291-.095.291-.622V9.167c-.06-1.12-.63-1.215-.63-1.613 0-.191.154-.383.399-.383h2.5c.337 0 .462.192.462.604v3.274c0 .354.153.479.245.479.2 0 .37-.126.74-.509 1.14-1.326 1.959-3.37 1.959-3.37.106-.24.291-.464.693-.464h1.59c.476 0 .583.254.476.608-.199.957-2.144 3.8-2.144 3.8-.167.287-.232.413 0 .733.17.24.726.737 1.095 1.182.68.8 1.202 1.47 1.34 1.934.157.46-.074.7-.522.7h.002z"/></svg>
