<svg width="18" height="18" viewBox="0 0 18 18" fill="none" xmlns="http://www.w3.org/2000/svg">
<path d="M10.7856 0.176758C7.00352 0.176758 3.92408 3.25607 3.92408 7.03798C3.92408 8.68124 4.50045 10.1873 5.46792 11.3695L0 16.8358L0.987368 17.8238L6.4546 12.3561C7.67563 13.3571 9.20665 13.9026 10.7856 13.8992C14.5676 13.8992 17.6471 10.8199 17.6471 7.03798C17.6471 3.25607 14.5676 0.176758 10.7856 0.176758ZM10.7856 1.549C13.8252 1.549 16.2748 3.99846 16.2748 7.03798C16.2748 10.0775 13.8252 12.527 10.7856 12.527C7.74593 12.527 5.29638 10.0775 5.29638 7.03798C5.29638 3.99846 7.74593 1.549 10.7856 1.549Z" />
</svg>
