<svg width="24" height="25" fill="none" xmlns="http://www.w3.org/2000/svg"><path d="M12.75 22.995a11.15 11.15 0 01-5.46-1.406L0 24.495l2.906-7.289a11.15 11.15 0 01-1.406-5.46c0-1.532.297-2.99.89-4.372.594-1.383 1.395-2.578 2.403-3.586S6.996 1.98 8.379 1.386a10.96 10.96 0 014.371-.89c1.531 0 2.988.296 4.371.89a11.32 11.32 0 013.586 2.402 11.32 11.32 0 012.402 3.586A10.96 10.96 0 0124 11.745c0 1.531-.297 2.988-.89 4.371-.594 1.383-1.395 2.578-2.403 3.586s-2.203 1.809-3.586 2.402a10.96 10.96 0 01-4.371.891zm3.75-9H15l-.844.75c-.703-.187-1.566-.793-2.59-1.816-1.023-1.024-1.629-1.887-1.816-2.59l.75-.844v-1.5c0-.266-.094-.531-.281-.797-.188-.265-.395-.457-.621-.574-.227-.117-.387-.129-.48-.035L8.015 7.69c-.61.61-.7 1.559-.27 2.848.43 1.29 1.25 2.54 2.461 3.75 1.211 1.211 2.461 2.031 3.75 2.461 1.29.43 2.238.34 2.848-.27l1.101-1.101c.094-.094.082-.254-.035-.48-.117-.227-.308-.434-.574-.622-.266-.187-.531-.28-.797-.28z" fill="#000"/></svg>