<svg width="17" height="17" viewBox="0 0 17 17" fill="none" xmlns="http://www.w3.org/2000/svg">
<path d="M4 6.5C4.13261 6.5 4.25979 6.55268 4.35355 6.64645C4.44732 6.74021 4.5 6.86739 4.5 7V13C4.5 13.1326 4.44732 13.2598 4.35355 13.3536C4.25979 13.4473 4.13261 13.5 4 13.5C3.86739 13.5 3.74021 13.4473 3.64645 13.3536C3.55268 13.2598 3.5 13.1326 3.5 13V7C3.5 6.86739 3.55268 6.74021 3.64645 6.64645C3.74021 6.55268 3.86739 6.5 4 6.5ZM6.5 6.5C6.63261 6.5 6.75979 6.55268 6.85355 6.64645C6.94732 6.74021 7 6.86739 7 7V13C7 13.1326 6.94732 13.2598 6.85355 13.3536C6.75979 13.4473 6.63261 13.5 6.5 13.5C6.36739 13.5 6.24021 13.4473 6.14645 13.3536C6.05268 13.2598 6 13.1326 6 13V7C6 6.86739 6.05268 6.74021 6.14645 6.64645C6.24021 6.55268 6.36739 6.5 6.5 6.5ZM9.5 7C9.5 6.86739 9.44732 6.74021 9.35355 6.64645C9.25979 6.55268 9.13261 6.5 9 6.5C8.86739 6.5 8.74021 6.55268 8.64645 6.64645C8.55268 6.74021 8.5 6.86739 8.5 7V13C8.5 13.1326 8.55268 13.2598 8.64645 13.3536C8.74021 13.4473 8.86739 13.5 9 13.5C9.13261 13.5 9.25979 13.4473 9.35355 13.3536C9.44732 13.2598 9.5 13.1326 9.5 13V7Z" fill="black"/>
<path fill-rule="evenodd" clip-rule="evenodd" d="M13 4C13 4.26522 12.8946 4.51957 12.7071 4.70711C12.5196 4.89464 12.2652 5 12 5H11.5V14C11.5 14.5304 11.2893 15.0391 10.9142 15.4142C10.5391 15.7893 10.0304 16 9.5 16H3.5C2.96957 16 2.46086 15.7893 2.08579 15.4142C1.71071 15.0391 1.5 14.5304 1.5 14V5H1C0.734784 5 0.48043 4.89464 0.292893 4.70711C0.105357 4.51957 0 4.26522 0 4V3C0 2.73478 0.105357 2.48043 0.292893 2.29289C0.48043 2.10536 0.734784 2 1 2H4.5C4.5 1.73478 4.60536 1.48043 4.79289 1.29289C4.98043 1.10536 5.23478 1 5.5 1H7.5C7.76522 1 8.01957 1.10536 8.20711 1.29289C8.39464 1.48043 8.5 1.73478 8.5 2H12C12.2652 2 12.5196 2.10536 12.7071 2.29289C12.8946 2.48043 13 2.73478 13 3V4ZM2.618 5L2.5 5.059V14C2.5 14.2652 2.60536 14.5196 2.79289 14.7071C2.98043 14.8946 3.23478 15 3.5 15H9.5C9.76522 15 10.0196 14.8946 10.2071 14.7071C10.3946 14.5196 10.5 14.2652 10.5 14V5.059L10.382 5H2.618ZM1 4V3H12V4H1Z" fill="black"/>
</svg>
