<svg width="19" height="15" viewBox="0 0 19 15" fill="none" xmlns="http://www.w3.org/2000/svg">
<path d="M17.9518 7.28196L16.0946 2.94863C16.0472 2.83674 15.968 2.74127 15.8667 2.67412C15.7654 2.60697 15.6466 2.57111 15.5251 2.57101H13.668V1.33291C13.668 1.16873 13.6027 1.01128 13.4867 0.895182C13.3706 0.779088 13.2131 0.713867 13.0489 0.713867H1.28702C1.12283 0.713867 0.965378 0.779088 0.849284 0.895182C0.73319 1.01128 0.667969 1.16873 0.667969 1.33291V11.8567C0.667969 12.0209 0.73319 12.1784 0.849284 12.2945C0.965378 12.4106 1.12283 12.4758 1.28702 12.4758H2.61178C2.75433 13.0003 3.06554 13.4634 3.49739 13.7936C3.92923 14.1237 4.45771 14.3026 5.0013 14.3026C5.54489 14.3026 6.07337 14.1237 6.50522 13.7936C6.93706 13.4634 7.24827 13.0003 7.39083 12.4758H11.2784C11.421 13.0003 11.7322 13.4634 12.1641 13.7936C12.5959 14.1237 13.1244 14.3026 13.668 14.3026C14.2116 14.3026 14.74 14.1237 15.1719 13.7936C15.6037 13.4634 15.9149 13.0003 16.0575 12.4758H17.3823C17.5464 12.4758 17.7039 12.4106 17.82 12.2945C17.9361 12.1784 18.0013 12.0209 18.0013 11.8567V7.52339C18.0011 7.44041 17.9843 7.35831 17.9518 7.28196ZM13.668 3.80911H15.1165L16.4413 6.90434H13.668V3.80911ZM5.0013 13.0948C4.75643 13.0948 4.51706 13.0222 4.31345 12.8862C4.10985 12.7501 3.95116 12.5568 3.85745 12.3305C3.76374 12.1043 3.73922 11.8554 3.787 11.6152C3.83477 11.375 3.95269 11.1544 4.12584 10.9813C4.29899 10.8081 4.51959 10.6902 4.75976 10.6424C4.99993 10.5946 5.24887 10.6192 5.4751 10.7129C5.70133 10.8066 5.8947 10.9653 6.03074 11.1689C6.16678 11.3725 6.2394 11.6119 6.2394 11.8567C6.2394 12.1851 6.10896 12.5 5.87677 12.7322C5.64458 12.9644 5.32967 13.0948 5.0013 13.0948ZM11.2784 11.2377H7.39083C7.24827 10.7131 6.93706 10.25 6.50522 9.91989C6.07337 9.58974 5.54489 9.41087 5.0013 9.41087C4.45771 9.41087 3.92923 9.58974 3.49739 9.91989C3.06554 10.25 2.75433 10.7131 2.61178 11.2377H1.90606V1.95196H12.4299V9.7272C12.148 9.89081 11.9012 10.1085 11.7036 10.3677C11.506 10.6269 11.3615 10.9225 11.2784 11.2377ZM13.668 13.0948C13.4231 13.0948 13.1837 13.0222 12.9801 12.8862C12.7765 12.7501 12.6178 12.5568 12.5241 12.3305C12.4304 12.1043 12.4059 11.8554 12.4537 11.6152C12.5014 11.375 12.6194 11.1544 12.7925 10.9813C12.9657 10.8081 13.1863 10.6902 13.4264 10.6424C13.6666 10.5946 13.9155 10.6192 14.1418 10.7129C14.368 10.8066 14.5614 10.9653 14.6974 11.1689C14.8335 11.3725 14.9061 11.6119 14.9061 11.8567C14.9061 12.1851 14.7756 12.5 14.5434 12.7322C14.3112 12.9644 13.9963 13.0948 13.668 13.0948ZM16.7632 11.2377H16.0575C15.9206 10.7075 15.6118 10.2376 15.1795 9.90158C14.7471 9.56555 14.2156 9.38231 13.668 9.38053V8.14244H16.7632V11.2377Z" fill="black"/>
</svg>
