<svg width="28" height="30" viewBox="0 0 28 30" fill="none" xmlns="http://www.w3.org/2000/svg">
<path d="M20.242 8.11716H25.6369C26.9299 8.11716 28 9.0795 28 10.3347V17.9498H15.1592V9.0795C14.7134 8.95397 14.3121 8.78661 14.0446 8.53556C14 8.53556 14 8.49372 13.9554 8.49372C13.9554 8.49372 13.9554 8.53556 13.9108 8.53556C13.5987 8.78661 13.242 8.95397 12.8408 9.0795V17.9498H0V10.3347C0 9.0795 1.02548 8.11716 2.31847 8.11716H7.75796C7.13376 7.82427 6.55414 7.40586 6.06369 7.02929C3.92357 5.1046 3.52229 2.42678 5.21656 0.920502C5.92994 0.334728 6.86624 0 7.89172 0C9.36306 0 10.879 0.543933 12.172 1.67364C12.8854 2.30126 13.5541 3.17992 13.9554 4.01674C14.4013 3.17992 15.0701 2.30126 15.7834 1.67364C17.0318 0.543933 18.6369 0 20.0637 0C21.1338 0 22.0701 0.334728 22.7389 0.920502C24.4331 2.42678 24.0318 5.1046 21.8471 7.02929C21.4013 7.40586 20.8217 7.82427 20.242 8.11716ZM12.3057 6.90377C12.4841 6.5272 12.0382 4.60251 10.5669 3.30544C9.80892 2.63598 8.78344 2.25941 7.89172 2.25941C7.6242 2.25941 7.17834 2.30126 6.86624 2.5523C6.77707 2.63598 6.50955 2.80335 6.50955 3.2636C6.50955 3.80753 6.86624 4.64435 7.71338 5.35565C8.78344 6.31799 10.4777 6.98745 11.7261 6.98745C12.1274 6.98745 12.3057 6.90377 12.3057 6.90377ZM15.6943 6.90377C15.6943 6.90377 15.9172 6.98745 16.2739 6.98745C17.5223 6.98745 19.2166 6.31799 20.2866 5.35565C21.1338 4.64435 21.4013 3.80753 21.4013 3.2636C21.4013 2.80335 21.1783 2.63598 21.1338 2.5523C20.8217 2.30126 20.3312 2.25941 20.0637 2.25941C19.2166 2.25941 18.1465 2.63598 17.3885 3.30544C15.9618 4.60251 15.4713 6.48536 15.6943 6.94561V6.90377ZM12.8408 30H2.31847C1.02548 30 0 29.0377 0 27.8243V20.1674H12.8408V30ZM25.6369 30H15.1592V20.1674H28V27.8243C28 29.0377 26.9299 30 25.6369 30Z" fill="black"/>
</svg>
